<svg width="20" height="16" viewBox="0 0 20 16" fill="none" xmlns="http://www.w3.org/2000/svg">
<path d="M3.4938 7.00037L8.62307 2.11862C9.02312 1.73787 9.03877 1.10489 8.65802 0.704837C8.27727 0.30478 7.6443 0.28913 7.24424 0.669882L0.310587 7.26894C-0.103212 7.66277 -0.103578 8.32263 0.309783 8.71692L7.2442 15.3314C7.64384 15.7126 8.27683 15.6976 8.65802 15.298C9.03922 14.8984 9.02427 14.2654 8.62464 13.8842L3.50459 9.00037L18.9999 9.00136C19.5522 9.0014 20 8.55371 20 8.00142C20 7.44914 19.5523 7.0014 19.0001 7.00136L11.7469 7.0009L3.4938 7.00037Z" fill="white"/>
</svg>
