<svg width="25" height="24" viewBox="0 0 25 24" fill="none" xmlns="http://www.w3.org/2000/svg">
<path d="M17.0186 9.34668H21.5186V4.84668" stroke="#155920" stroke-width="2" stroke-linecap="round" stroke-linejoin="round"/>
<path d="M6.66895 6.16885C7.43431 5.40236 8.34329 4.79429 9.34387 4.37941C10.3444 3.96453 11.417 3.75098 12.5002 3.75098C13.5834 3.75098 14.6559 3.96453 15.6565 4.37941C16.6571 4.79429 17.5661 5.40236 18.3314 6.16885L21.5189 9.34698" stroke="#155920" stroke-width="2" stroke-linecap="round" stroke-linejoin="round"/>
<path d="M7.98145 14.6533H3.48145V19.1533" stroke="#155920" stroke-width="2" stroke-linecap="round" stroke-linejoin="round"/>
<path d="M18.3314 17.8314C17.5661 18.5979 16.6571 19.206 15.6565 19.6209C14.6559 20.0358 13.5834 20.2493 12.5002 20.2493C11.417 20.2493 10.3445 20.0358 9.34387 19.6209C8.34329 19.206 7.43431 18.5979 6.66895 17.8314L3.48145 14.6533" stroke="#155920" stroke-width="2" stroke-linecap="round" stroke-linejoin="round"/>
</svg>
