<svg width="88" height="24" viewBox="0 0 88 24" fill="none" xmlns="http://www.w3.org/2000/svg">
<rect width="88" height="24" rx="10" fill="#F5F5F5"/>
<path d="M13.5628 16V8.72727H16.4747C17.0097 8.72727 17.456 8.80658 17.8135 8.9652C18.171 9.12382 18.4397 9.34399 18.6196 9.62571C18.7995 9.90507 18.8895 10.227 18.8895 10.5916C18.8895 10.8757 18.8327 11.1255 18.719 11.3409C18.6054 11.554 18.4491 11.7292 18.2503 11.8665C18.0538 12.0014 17.8289 12.0973 17.5756 12.1541V12.2251C17.8525 12.237 18.1118 12.3151 18.3532 12.4595C18.5971 12.6039 18.7948 12.8063 18.9463 13.0668C19.0978 13.3248 19.1736 13.6326 19.1736 13.9901C19.1736 14.3759 19.0777 14.7204 18.8859 15.0234C18.6965 15.3241 18.416 15.562 18.0443 15.7372C17.6726 15.9124 17.2145 16 16.67 16H13.5628ZM15.1004 14.7429H16.354C16.7825 14.7429 17.095 14.6612 17.2915 14.4979C17.488 14.3321 17.5862 14.112 17.5862 13.8374C17.5862 13.6361 17.5377 13.4586 17.4406 13.3047C17.3435 13.1508 17.205 13.0301 17.0251 12.9425C16.8476 12.8549 16.6357 12.8111 16.3895 12.8111H15.1004V14.7429ZM15.1004 11.7706H16.2403C16.451 11.7706 16.6381 11.7339 16.8014 11.6605C16.9671 11.5848 17.0973 11.4782 17.192 11.3409C17.2891 11.2036 17.3376 11.0391 17.3376 10.8473C17.3376 10.5845 17.2441 10.3726 17.0571 10.2116C16.8724 10.0507 16.6096 9.97017 16.2687 9.97017H15.1004V11.7706ZM21.0938 12.2216H22.7238C23.4459 12.2216 24.0093 12.3944 24.4142 12.7401C24.819 13.0833 25.0214 13.5426 25.0214 14.1179C25.0214 14.492 24.9303 14.821 24.748 15.1051C24.5657 15.3868 24.3029 15.607 23.9596 15.7656C23.6163 15.9219 23.2044 16 22.7238 16H20.1457V10.5455H21.591V14.8104H22.7238C22.9771 14.8104 23.1855 14.7464 23.3488 14.6186C23.5122 14.4908 23.595 14.3274 23.5974 14.1286C23.595 13.9179 23.5122 13.7462 23.3488 13.6136C23.1855 13.4787 22.9771 13.4112 22.7238 13.4112H21.0938V12.2216ZM25.6073 16V10.5455H27.1201V16H25.6073ZM32.0651 10.5455V11.7351H29.7994V16H28.3293V10.5455H32.0651ZM35.2567 16.1065C34.705 16.1065 34.228 15.9893 33.8256 15.755C33.4255 15.5182 33.1165 15.1892 32.8987 14.7678C32.6809 14.344 32.572 13.8527 32.572 13.294C32.572 12.7306 32.6809 12.2382 32.8987 11.8168C33.1165 11.393 33.4255 11.0639 33.8256 10.8295C34.228 10.5928 34.705 10.4744 35.2567 10.4744C35.8083 10.4744 36.2841 10.5928 36.6842 10.8295C37.0867 11.0639 37.3968 11.393 37.6146 11.8168C37.8324 12.2382 37.9413 12.7306 37.9413 13.294C37.9413 13.8527 37.8324 14.344 37.6146 14.7678C37.3968 15.1892 37.0867 15.5182 36.6842 15.755C36.2841 15.9893 35.8083 16.1065 35.2567 16.1065ZM35.2638 14.9347C35.5147 14.9347 35.7242 14.8636 35.8923 14.7216C36.0604 14.5772 36.1871 14.3807 36.2723 14.1321C36.3599 13.8835 36.4037 13.6006 36.4037 13.2834C36.4037 12.9661 36.3599 12.6832 36.2723 12.4347C36.1871 12.1861 36.0604 11.9896 35.8923 11.8452C35.7242 11.7008 35.5147 11.6286 35.2638 11.6286C35.0104 11.6286 34.7974 11.7008 34.6246 11.8452C34.4541 11.9896 34.3251 12.1861 34.2375 12.4347C34.1523 12.6832 34.1096 12.9661 34.1096 13.2834C34.1096 13.6006 34.1523 13.8835 34.2375 14.1321C34.3251 14.3807 34.4541 14.5772 34.6246 14.7216C34.7974 14.8636 35.0104 14.9347 35.2638 14.9347ZM38.4988 17.598V14.7997H38.9179C39.0386 14.724 39.1357 14.6032 39.2091 14.4375C39.2848 14.2718 39.3464 14.0765 39.3937 13.8516C39.4434 13.6267 39.4813 13.384 39.5074 13.1236C39.5358 12.8608 39.5606 12.5956 39.5819 12.3281L39.724 10.5455H43.9072V14.7997H44.7524V17.598H43.3106V16H39.9761V17.598H38.4988ZM40.4236 14.7997H42.4797V11.7102H41.0095L40.9527 12.3281C40.9124 12.9105 40.8544 13.4053 40.7787 13.8125C40.7029 14.2173 40.5845 14.5464 40.4236 14.7997ZM47.1894 16.103C46.8414 16.103 46.5312 16.0426 46.259 15.9219C45.9867 15.7988 45.7713 15.6177 45.6127 15.3786C45.4564 15.1371 45.3783 14.8364 45.3783 14.4766C45.3783 14.1735 45.4339 13.919 45.5452 13.7131C45.6565 13.5071 45.808 13.3414 45.9997 13.2159C46.1915 13.0904 46.4093 12.9957 46.6531 12.9318C46.8994 12.8679 47.1574 12.8229 47.4273 12.7969C47.7445 12.7637 48.0002 12.733 48.1943 12.7045C48.3885 12.6738 48.5293 12.6288 48.6169 12.5696C48.7045 12.5104 48.7483 12.4228 48.7483 12.3068V12.2855C48.7483 12.0606 48.6773 11.8866 48.5352 11.7635C48.3956 11.6404 48.1967 11.5788 47.9387 11.5788C47.6664 11.5788 47.4498 11.6392 47.2888 11.7599C47.1278 11.8783 47.0213 12.0275 46.9692 12.2074L45.57 12.0938C45.6411 11.7623 45.7807 11.4759 45.9891 11.2344C46.1974 10.9905 46.4661 10.8035 46.7952 10.6733C47.1266 10.5407 47.5102 10.4744 47.9458 10.4744C48.2488 10.4744 48.5388 10.5099 48.8158 10.581C49.0951 10.652 49.3425 10.7621 49.558 10.9112C49.7758 11.0604 49.9474 11.2521 50.0729 11.4865C50.1984 11.7185 50.2611 11.9967 50.2611 12.321V16H48.8264V15.2436H48.7838C48.6962 15.4141 48.579 15.5644 48.4323 15.6946C48.2855 15.8224 48.1091 15.9231 47.9031 15.9964C47.6972 16.0675 47.4593 16.103 47.1894 16.103ZM47.6226 15.0589C47.8451 15.0589 48.0416 15.0152 48.2121 14.9276C48.3825 14.8376 48.5163 14.7169 48.6134 14.5653C48.7104 14.4138 48.759 14.2422 48.759 14.0504V13.4716C48.7116 13.5024 48.6465 13.5308 48.5637 13.5568C48.4832 13.5805 48.392 13.603 48.2902 13.6243C48.1884 13.6432 48.0866 13.661 47.9848 13.6776C47.883 13.6918 47.7907 13.7048 47.7078 13.7166C47.5303 13.7427 47.3752 13.7841 47.2426 13.8409C47.1101 13.8977 47.0071 13.9747 46.9337 14.0717C46.8603 14.1664 46.8236 14.2848 46.8236 14.4268C46.8236 14.6328 46.8982 14.7902 47.0473 14.8991C47.1988 15.0057 47.3906 15.0589 47.6226 15.0589ZM56.3912 16.0994C55.8894 16.0994 55.4419 16.0071 55.0489 15.8224C54.6583 15.6378 54.3482 15.3833 54.1185 15.0589C53.8889 14.7346 53.7693 14.3629 53.7599 13.9439H55.2513C55.2679 14.2256 55.3863 14.4541 55.6064 14.6293C55.8266 14.8045 56.0882 14.892 56.3912 14.892C56.6327 14.892 56.8458 14.8388 57.0305 14.7322C57.2175 14.6233 57.3631 14.473 57.4672 14.2812C57.5738 14.0871 57.627 13.8646 57.627 13.6136C57.627 13.358 57.5726 13.133 57.4637 12.9389C57.3572 12.7448 57.2092 12.5933 57.0198 12.4844C56.8304 12.3755 56.6138 12.3198 56.3699 12.3175C56.1569 12.3175 55.9497 12.3613 55.7485 12.4489C55.5496 12.5365 55.3946 12.656 55.2833 12.8075L53.9161 12.5625L54.2606 8.72727H58.7066V9.98438H55.5283L55.3401 11.8061H55.3827C55.5106 11.6262 55.7035 11.477 55.9616 11.3587C56.2196 11.2403 56.5084 11.1811 56.828 11.1811C57.266 11.1811 57.6566 11.2841 57.9999 11.4901C58.3432 11.696 58.6143 11.9789 58.8131 12.3388C59.012 12.6963 59.1102 13.1082 59.1079 13.5746C59.1102 14.0646 58.9966 14.5002 58.767 14.8814C58.5397 15.2602 58.2213 15.5585 57.8117 15.7763C57.4045 15.9917 56.931 16.0994 56.3912 16.0994ZM63.0319 16.1598C62.4211 16.1574 61.8955 16.0071 61.4552 15.7088C61.0172 15.4105 60.6798 14.9785 60.4431 14.4126C60.2087 13.8468 60.0927 13.1662 60.0951 12.3707C60.0951 11.5777 60.2123 10.9018 60.4466 10.343C60.6834 9.78433 61.0207 9.35937 61.4587 9.06818C61.8991 8.77462 62.4234 8.62784 63.0319 8.62784C63.6403 8.62784 64.1635 8.77462 64.6015 9.06818C65.0418 9.36174 65.3804 9.78788 65.6171 10.3466C65.8538 10.9029 65.971 11.5777 65.9687 12.3707C65.9687 13.1686 65.8503 13.8504 65.6135 14.4162C65.3792 14.982 65.043 15.4141 64.605 15.7124C64.1671 16.0107 63.6427 16.1598 63.0319 16.1598ZM63.0319 14.8849C63.4485 14.8849 63.7812 14.6754 64.0297 14.2564C64.2783 13.8374 64.4014 13.2088 64.3991 12.3707C64.3991 11.8191 64.3422 11.3598 64.2286 10.9929C64.1173 10.6259 63.9587 10.3501 63.7528 10.1655C63.5492 9.98082 63.3089 9.88849 63.0319 9.88849C62.6176 9.88849 62.2861 10.0956 62.0376 10.5099C61.789 10.9242 61.6635 11.5445 61.6611 12.3707C61.6611 12.9295 61.7168 13.3958 61.828 13.7699C61.9417 14.1416 62.1015 14.4209 62.3074 14.608C62.5134 14.7926 62.7549 14.8849 63.0319 14.8849ZM71.0459 14.6364V14.2528C71.0459 13.9616 71.1075 13.6941 71.2306 13.4503C71.356 13.2041 71.5371 13.0076 71.7739 12.8608C72.013 12.7116 72.3042 12.6371 72.6475 12.6371C72.9955 12.6371 73.2878 12.7105 73.5246 12.8572C73.7637 13.004 73.9436 13.2005 74.0644 13.4467C74.1875 13.6906 74.249 13.9593 74.249 14.2528V14.6364C74.249 14.9276 74.1875 15.1963 74.0644 15.4425C73.9413 15.6863 73.7602 15.8816 73.521 16.0284C73.2819 16.1776 72.9907 16.2521 72.6475 16.2521C72.2994 16.2521 72.0071 16.1776 71.7703 16.0284C71.5336 15.8816 71.3537 15.6863 71.2306 15.4425C71.1075 15.1963 71.0459 14.9276 71.0459 14.6364ZM72.0793 14.2528V14.6364C72.0793 14.8045 72.1195 14.9631 72.2 15.1122C72.2829 15.2614 72.432 15.3359 72.6475 15.3359C72.8629 15.3359 73.0097 15.2625 73.0878 15.1158C73.1683 14.969 73.2085 14.8092 73.2085 14.6364V14.2528C73.2085 14.08 73.1707 13.919 73.0949 13.7699C73.0191 13.6207 72.87 13.5462 72.6475 13.5462C72.4344 13.5462 72.2864 13.6207 72.2036 13.7699C72.1207 13.919 72.0793 14.08 72.0793 14.2528ZM67.3137 10.4744V10.0909C67.3137 9.79735 67.3764 9.52865 67.5019 9.2848C67.6273 9.03859 67.8084 8.84209 68.0452 8.69531C68.2843 8.54853 68.5731 8.47514 68.9117 8.47514C69.262 8.47514 69.5556 8.54853 69.7923 8.69531C70.0291 8.84209 70.209 9.03859 70.3321 9.2848C70.4552 9.52865 70.5168 9.79735 70.5168 10.0909V10.4744C70.5168 10.768 70.454 11.0367 70.3286 11.2805C70.2055 11.5244 70.0244 11.7197 69.7852 11.8665C69.5485 12.0109 69.2573 12.0831 68.9117 12.0831C68.566 12.0831 68.2736 12.0097 68.0345 11.8629C67.7978 11.7138 67.6179 11.5185 67.4948 11.277C67.374 11.0331 67.3137 10.7656 67.3137 10.4744ZM68.3541 10.0909V10.4744C68.3541 10.6473 68.3944 10.8071 68.4749 10.9538C68.5577 11.1006 68.7033 11.174 68.9117 11.174C69.1295 11.174 69.2774 11.1006 69.3556 10.9538C69.436 10.8071 69.4763 10.6473 69.4763 10.4744V10.0909C69.4763 9.91809 69.4384 9.7571 69.3627 9.60795C69.2869 9.45881 69.1366 9.38423 68.9117 9.38423C68.701 9.38423 68.5554 9.45999 68.4749 9.61151C68.3944 9.76302 68.3541 9.92282 68.3541 10.0909ZM67.7824 16L72.7824 8.72727H73.7128L68.7128 16H67.7824Z" fill="#168E2C"/>
</svg>
