<svg width="88" height="24" viewBox="0 0 88 24" fill="none" xmlns="http://www.w3.org/2000/svg">
<rect width="88" height="24" rx="10" fill="#F5F5F5"/>
<path d="M13.4895 16V8.72727H16.4015C16.9365 8.72727 17.3828 8.80658 17.7402 8.9652C18.0977 9.12382 18.3664 9.34399 18.5463 9.62571C18.7263 9.90507 18.8162 10.227 18.8162 10.5916C18.8162 10.8757 18.7594 11.1255 18.6458 11.3409C18.5321 11.554 18.3759 11.7292 18.177 11.8665C17.9805 12.0014 17.7556 12.0973 17.5023 12.1541V12.2251C17.7793 12.237 18.0385 12.3151 18.28 12.4595C18.5239 12.6039 18.7215 12.8063 18.873 13.0668C19.0246 13.3248 19.1003 13.6326 19.1003 13.9901C19.1003 14.3759 19.0044 14.7204 18.8127 15.0234C18.6233 15.3241 18.3427 15.562 17.9711 15.7372C17.5994 15.9124 17.1413 16 16.5968 16H13.4895ZM15.0272 14.7429H16.2807C16.7092 14.7429 17.0217 14.6612 17.2182 14.4979C17.4147 14.3321 17.513 14.112 17.513 13.8374C17.513 13.6361 17.4644 13.4586 17.3674 13.3047C17.2703 13.1508 17.1318 13.0301 16.9519 12.9425C16.7743 12.8549 16.5624 12.8111 16.3162 12.8111H15.0272V14.7429ZM15.0272 11.7706H16.1671C16.3778 11.7706 16.5648 11.7339 16.7282 11.6605C16.8939 11.5848 17.0241 11.4782 17.1188 11.3409C17.2158 11.2036 17.2644 11.0391 17.2644 10.8473C17.2644 10.5845 17.1709 10.3726 16.9838 10.2116C16.7992 10.0507 16.5364 9.97017 16.1955 9.97017H15.0272V11.7706ZM21.0206 12.2216H22.6506C23.3726 12.2216 23.9361 12.3944 24.3409 12.7401C24.7457 13.0833 24.9482 13.5426 24.9482 14.1179C24.9482 14.492 24.857 14.821 24.6747 15.1051C24.4924 15.3868 24.2296 15.607 23.8864 15.7656C23.5431 15.9219 23.1312 16 22.6506 16H20.0724V10.5455H21.5178V14.8104H22.6506C22.9039 14.8104 23.1122 14.7464 23.2756 14.6186C23.4389 14.4908 23.5218 14.3274 23.5241 14.1286C23.5218 13.9179 23.4389 13.7462 23.2756 13.6136C23.1122 13.4787 22.9039 13.4112 22.6506 13.4112H21.0206V12.2216ZM25.5341 16V10.5455H27.0469V16H25.5341ZM31.9918 10.5455V11.7351H29.7262V16H28.256V10.5455H31.9918ZM35.1834 16.1065C34.6318 16.1065 34.1548 15.9893 33.7523 15.755C33.3522 15.5182 33.0433 15.1892 32.8255 14.7678C32.6077 14.344 32.4988 13.8527 32.4988 13.294C32.4988 12.7306 32.6077 12.2382 32.8255 11.8168C33.0433 11.393 33.3522 11.0639 33.7523 10.8295C34.1548 10.5928 34.6318 10.4744 35.1834 10.4744C35.735 10.4744 36.2109 10.5928 36.611 10.8295C37.0134 11.0639 37.3236 11.393 37.5414 11.8168C37.7592 12.2382 37.8681 12.7306 37.8681 13.294C37.8681 13.8527 37.7592 14.344 37.5414 14.7678C37.3236 15.1892 37.0134 15.5182 36.611 15.755C36.2109 15.9893 35.735 16.1065 35.1834 16.1065ZM35.1905 14.9347C35.4415 14.9347 35.651 14.8636 35.8191 14.7216C35.9872 14.5772 36.1138 14.3807 36.199 14.1321C36.2866 13.8835 36.3304 13.6006 36.3304 13.2834C36.3304 12.9661 36.2866 12.6832 36.199 12.4347C36.1138 12.1861 35.9872 11.9896 35.8191 11.8452C35.651 11.7008 35.4415 11.6286 35.1905 11.6286C34.9372 11.6286 34.7241 11.7008 34.5513 11.8452C34.3809 11.9896 34.2518 12.1861 34.1642 12.4347C34.079 12.6832 34.0364 12.9661 34.0364 13.2834C34.0364 13.6006 34.079 13.8835 34.1642 14.1321C34.2518 14.3807 34.3809 14.5772 34.5513 14.7216C34.7241 14.8636 34.9372 14.9347 35.1905 14.9347ZM38.4256 17.598V14.7997H38.8446C38.9654 14.724 39.0624 14.6032 39.1358 14.4375C39.2116 14.2718 39.2731 14.0765 39.3205 13.8516C39.3702 13.6267 39.4081 13.384 39.4341 13.1236C39.4625 12.8608 39.4874 12.5956 39.5087 12.3281L39.6507 10.5455H43.834V14.7997H44.6792V17.598H43.2374V16H39.9029V17.598H38.4256ZM40.3503 14.7997H42.4064V11.7102H40.9363L40.8794 12.3281C40.8392 12.9105 40.7812 13.4053 40.7054 13.8125C40.6297 14.2173 40.5113 14.5464 40.3503 14.7997ZM47.1161 16.103C46.7681 16.103 46.458 16.0426 46.1857 15.9219C45.9135 15.7988 45.698 15.6177 45.5394 15.3786C45.3832 15.1371 45.305 14.8364 45.305 14.4766C45.305 14.1735 45.3607 13.919 45.4719 13.7131C45.5832 13.5071 45.7347 13.3414 45.9265 13.2159C46.1183 13.0904 46.3361 12.9957 46.5799 12.9318C46.8261 12.8679 47.0842 12.8229 47.354 12.7969C47.6713 12.7637 47.927 12.733 48.1211 12.7045C48.3152 12.6738 48.4561 12.6288 48.5437 12.5696C48.6313 12.5104 48.6751 12.4228 48.6751 12.3068V12.2855C48.6751 12.0606 48.604 11.8866 48.462 11.7635C48.3223 11.6404 48.1235 11.5788 47.8654 11.5788C47.5932 11.5788 47.3765 11.6392 47.2156 11.7599C47.0546 11.8783 46.948 12.0275 46.896 12.2074L45.4968 12.0938C45.5678 11.7623 45.7075 11.4759 45.9158 11.2344C46.1242 10.9905 46.3929 10.8035 46.7219 10.6733C47.0534 10.5407 47.4369 10.4744 47.8725 10.4744C48.1755 10.4744 48.4656 10.5099 48.7425 10.581C49.0219 10.652 49.2693 10.7621 49.4847 10.9112C49.7025 11.0604 49.8742 11.2521 49.9996 11.4865C50.1251 11.7185 50.1879 11.9967 50.1879 12.321V16H48.7532V15.2436H48.7106C48.623 15.4141 48.5058 15.5644 48.359 15.6946C48.2122 15.8224 48.0359 15.9231 47.8299 15.9964C47.6239 16.0675 47.386 16.103 47.1161 16.103ZM47.5494 15.0589C47.7719 15.0589 47.9684 15.0152 48.1388 14.9276C48.3093 14.8376 48.4431 14.7169 48.5401 14.5653C48.6372 14.4138 48.6857 14.2422 48.6857 14.0504V13.4716C48.6384 13.5024 48.5733 13.5308 48.4904 13.5568C48.4099 13.5805 48.3188 13.603 48.217 13.6243C48.1152 13.6432 48.0134 13.661 47.9116 13.6776C47.8098 13.6918 47.7174 13.7048 47.6346 13.7166C47.457 13.7427 47.302 13.7841 47.1694 13.8409C47.0368 13.8977 46.9338 13.9747 46.8604 14.0717C46.7871 14.1664 46.7504 14.2848 46.7504 14.4268C46.7504 14.6328 46.8249 14.7902 46.9741 14.8991C47.1256 15.0057 47.3174 15.0589 47.5494 15.0589ZM56.35 16.0994C55.8197 16.0994 55.3474 16.0083 54.9331 15.826C54.5211 15.6413 54.1956 15.388 53.9565 15.0661C53.7198 14.7417 53.5978 14.3677 53.5907 13.9439H55.139C55.1485 14.1214 55.2065 14.2777 55.313 14.4126C55.4219 14.5452 55.5663 14.6482 55.7463 14.7216C55.9262 14.795 56.1286 14.8317 56.3535 14.8317C56.5879 14.8317 56.795 14.7902 56.975 14.7074C57.1549 14.6245 57.2958 14.5097 57.3975 14.3629C57.4993 14.2161 57.5502 14.0469 57.5502 13.8551C57.5502 13.661 57.4958 13.4893 57.3869 13.3402C57.2804 13.1887 57.1265 13.0703 56.9252 12.9851C56.7264 12.8999 56.4896 12.8572 56.215 12.8572H55.5368V11.728H56.215C56.447 11.728 56.6518 11.6877 56.8294 11.6072C57.0093 11.5268 57.149 11.4155 57.2484 11.2734C57.3478 11.129 57.3975 10.9609 57.3975 10.7692C57.3975 10.5869 57.3538 10.4271 57.2662 10.2898C57.1809 10.1501 57.0602 10.0412 56.9039 9.96307C56.7501 9.88494 56.5701 9.84588 56.3642 9.84588C56.1558 9.84588 55.9653 9.88376 55.7924 9.95952C55.6196 10.0329 55.4811 10.1383 55.377 10.2756C55.2728 10.4129 55.2172 10.5739 55.21 10.7585H53.7363C53.7434 10.3395 53.863 9.97017 54.095 9.65057C54.327 9.33097 54.6395 9.0812 55.0325 8.90128C55.4279 8.71899 55.8741 8.62784 56.3713 8.62784C56.8732 8.62784 57.3123 8.71899 57.6887 8.90128C58.0652 9.08357 58.3575 9.32978 58.5659 9.63991C58.7766 9.94768 58.8807 10.2933 58.8784 10.6768C58.8807 11.084 58.7541 11.4238 58.4984 11.696C58.2451 11.9683 57.9148 12.1411 57.5076 12.2145V12.2713C58.0427 12.34 58.4499 12.5258 58.7292 12.8288C59.0109 13.1295 59.1506 13.5059 59.1483 13.9581C59.1506 14.3724 59.0311 14.7405 58.7896 15.0625C58.5505 15.3845 58.2202 15.6378 57.7988 15.8224C57.3774 16.0071 56.8945 16.0994 56.35 16.0994ZM63.1051 16.1598C62.4943 16.1574 61.9688 16.0071 61.5284 15.7088C61.0904 15.4105 60.7531 14.9785 60.5163 14.4126C60.282 13.8468 60.166 13.1662 60.1683 12.3707C60.1683 11.5777 60.2855 10.9018 60.5199 10.343C60.7566 9.78433 61.094 9.35937 61.532 9.06818C61.9723 8.77462 62.4967 8.62784 63.1051 8.62784C63.7135 8.62784 64.2367 8.77462 64.6747 9.06818C65.1151 9.36174 65.4536 9.78788 65.6903 10.3466C65.9271 10.9029 66.0443 11.5777 66.0419 12.3707C66.0419 13.1686 65.9235 13.8504 65.6868 14.4162C65.4524 14.982 65.1162 15.4141 64.6783 15.7124C64.2403 16.0107 63.7159 16.1598 63.1051 16.1598ZM63.1051 14.8849C63.5218 14.8849 63.8544 14.6754 64.103 14.2564C64.3516 13.8374 64.4747 13.2088 64.4723 12.3707C64.4723 11.8191 64.4155 11.3598 64.3018 10.9929C64.1906 10.6259 64.032 10.3501 63.826 10.1655C63.6224 9.98082 63.3821 9.88849 63.1051 9.88849C62.6908 9.88849 62.3594 10.0956 62.1108 10.5099C61.8622 10.9242 61.7367 11.5445 61.7344 12.3707C61.7344 12.9295 61.79 13.3958 61.9013 13.7699C62.0149 14.1416 62.1747 14.4209 62.3807 14.608C62.5866 14.7926 62.8281 14.8849 63.1051 14.8849ZM71.1191 14.6364V14.2528C71.1191 13.9616 71.1807 13.6941 71.3038 13.4503C71.4293 13.2041 71.6104 13.0076 71.8471 12.8608C72.0862 12.7116 72.3774 12.6371 72.7207 12.6371C73.0687 12.6371 73.3611 12.7105 73.5978 12.8572C73.8369 13.004 74.0169 13.2005 74.1376 13.4467C74.2607 13.6906 74.3223 13.9593 74.3223 14.2528V14.6364C74.3223 14.9276 74.2607 15.1963 74.1376 15.4425C74.0145 15.6863 73.8334 15.8816 73.5943 16.0284C73.3552 16.1776 73.064 16.2521 72.7207 16.2521C72.3727 16.2521 72.0803 16.1776 71.8436 16.0284C71.6068 15.8816 71.4269 15.6863 71.3038 15.4425C71.1807 15.1963 71.1191 14.9276 71.1191 14.6364ZM72.1525 14.2528V14.6364C72.1525 14.8045 72.1928 14.9631 72.2733 15.1122C72.3561 15.2614 72.5053 15.3359 72.7207 15.3359C72.9361 15.3359 73.0829 15.2625 73.161 15.1158C73.2415 14.969 73.2818 14.8092 73.2818 14.6364V14.2528C73.2818 14.08 73.2439 13.919 73.1681 13.7699C73.0924 13.6207 72.9432 13.5462 72.7207 13.5462C72.5076 13.5462 72.3597 13.6207 72.2768 13.7699C72.194 13.919 72.1525 14.08 72.1525 14.2528ZM67.3869 10.4744V10.0909C67.3869 9.79735 67.4496 9.52865 67.5751 9.2848C67.7006 9.03859 67.8817 8.84209 68.1184 8.69531C68.3575 8.54853 68.6464 8.47514 68.9849 8.47514C69.3353 8.47514 69.6288 8.54853 69.8656 8.69531C70.1023 8.84209 70.2823 9.03859 70.4054 9.2848C70.5285 9.52865 70.59 9.79735 70.59 10.0909V10.4744C70.59 10.768 70.5273 11.0367 70.4018 11.2805C70.2787 11.5244 70.0976 11.7197 69.8585 11.8665C69.6217 12.0109 69.3306 12.0831 68.9849 12.0831C68.6393 12.0831 68.3469 12.0097 68.1078 11.8629C67.871 11.7138 67.6911 11.5185 67.568 11.277C67.4473 11.0331 67.3869 10.7656 67.3869 10.4744ZM68.4274 10.0909V10.4744C68.4274 10.6473 68.4676 10.8071 68.5481 10.9538C68.631 11.1006 68.7766 11.174 68.9849 11.174C69.2027 11.174 69.3507 11.1006 69.4288 10.9538C69.5093 10.8071 69.5495 10.6473 69.5495 10.4744V10.0909C69.5495 9.91809 69.5117 9.7571 69.4359 9.60795C69.3601 9.45881 69.2098 9.38423 68.9849 9.38423C68.7742 9.38423 68.6286 9.45999 68.5481 9.61151C68.4676 9.76302 68.4274 9.92282 68.4274 10.0909ZM67.8556 16L72.8556 8.72727H73.786L68.786 16H67.8556Z" fill="#168E2C"/>
</svg>
