<svg width="25" height="24" viewBox="0 0 25 24" fill="none" xmlns="http://www.w3.org/2000/svg">
<path d="M22.8613 4.8668L18.4664 3.89999L17.4996 8.29491" stroke="#155920" stroke-width="2" stroke-linecap="round" stroke-linejoin="round"/>
<path d="M6.5 15V12H8.4H10.5V10H6.5V9H9.5C11.2 9 12.5 7.7 12.5 6C12.5 4.3 11.2 3 9.5 3H4.5V7H2.5V9H4.5V10H2.5V12H4.5V15H6.5ZM6.5 5H9.5C10.1 5 10.5 5.4 10.5 6C10.5 6.6 10.1 7 9.5 7H6.5V5Z" fill="#155920"/>
<path fill-rule="evenodd" clip-rule="evenodd" d="M5.50049 18.4994C7.32435 20.4381 9.91338 21.6486 12.7851 21.6486C18.308 21.6486 22.7851 17.1714 22.7851 11.6486C22.7851 8.52402 21.3521 5.73417 19.1075 3.90039L17.7401 5.3674C19.5948 6.8325 20.7851 9.10153 20.7851 11.6486C20.7851 16.0669 17.2034 19.6486 12.7851 19.6486C10.4403 19.6486 8.33106 18.6397 6.8678 17.0324L5.50049 18.4994Z" fill="#155920"/>
</svg>
