<svg width="15" height="15" viewBox="0 0 15 15" fill="none" xmlns="http://www.w3.org/2000/svg">
<path d="M7.50004 8.8762L12.9357 14.3118C13.3157 14.6918 13.9319 14.6918 14.3119 14.3118C14.6919 13.9318 14.6919 13.3156 14.3119 12.9356L8.87626 7.5L14.3119 2.0644C14.6919 1.68437 14.6919 1.06822 14.3119 0.688187C13.9319 0.308161 13.3157 0.308162 12.9357 0.688188L7.50004 6.1238L2.06431 0.688097C1.68428 0.308071 1.06814 0.308071 0.688109 0.688097C0.308078 1.06813 0.308079 1.68428 0.688111 2.06431L6.12383 7.5L0.68811 12.9357C0.308078 13.3157 0.308078 13.9319 0.68811 14.3119C1.06814 14.6919 1.68428 14.6919 2.06431 14.3119L7.50004 8.8762Z" fill="#F5F5F5"/>
</svg>
