<svg width="20" height="20" viewBox="0 0 20 20" fill="none" xmlns="http://www.w3.org/2000/svg">
<path d="M1 3.25C1 2.65326 1.23705 2.08097 1.65901 1.65901C2.08097 1.23705 2.65326 1 3.25 1H12.75C13.3467 1 13.919 1.23705 14.341 1.65901C14.7629 2.08097 15 2.65326 15 3.25V12H19V15.75C19 16.612 18.6576 17.4386 18.0481 18.0481C17.4386 18.6576 16.612 19 15.75 19H4.25C3.38805 19 2.5614 18.6576 1.9519 18.0481C1.34241 17.4386 1 16.612 1 15.75V3.25ZM15 17.5H15.75C16.2141 17.5 16.6592 17.3156 16.9874 16.9874C17.3156 16.6592 17.5 16.2141 17.5 15.75V13.5H15V17.5ZM3.25 2.5C3.05109 2.5 2.86032 2.57902 2.71967 2.71967C2.57902 2.86032 2.5 3.05109 2.5 3.25V15.75C2.5 16.716 3.284 17.5 4.25 17.5H13.5V3.25C13.5 3.05109 13.421 2.86032 13.2803 2.71967C13.1397 2.57902 12.9489 2.5 12.75 2.5H3.25ZM5.25 5C5.05109 5 4.86032 5.07902 4.71967 5.21967C4.57902 5.36032 4.5 5.55109 4.5 5.75C4.5 5.94891 4.57902 6.13968 4.71967 6.28033C4.86032 6.42098 5.05109 6.5 5.25 6.5H10.75C10.9489 6.5 11.1397 6.42098 11.2803 6.28033C11.421 6.13968 11.5 5.94891 11.5 5.75C11.5 5.55109 11.421 5.36032 11.2803 5.21967C11.1397 5.07902 10.9489 5 10.75 5H5.25ZM4.5 9.75C4.5 9.55109 4.57902 9.36032 4.71967 9.21967C4.86032 9.07902 5.05109 9 5.25 9H10.75C10.9489 9 11.1397 9.07902 11.2803 9.21967C11.421 9.36032 11.5 9.55109 11.5 9.75C11.5 9.94891 11.421 10.1397 11.2803 10.2803C11.1397 10.421 10.9489 10.5 10.75 10.5H5.25C5.05109 10.5 4.86032 10.421 4.71967 10.2803C4.57902 10.1397 4.5 9.94891 4.5 9.75ZM5.25 13C5.05109 13 4.86032 13.079 4.71967 13.2197C4.57902 13.3603 4.5 13.5511 4.5 13.75C4.5 13.9489 4.57902 14.1397 4.71967 14.2803C4.86032 14.421 5.05109 14.5 5.25 14.5H8.25C8.44891 14.5 8.63968 14.421 8.78033 14.2803C8.92098 14.1397 9 13.9489 9 13.75C9 13.5511 8.92098 13.3603 8.78033 13.2197C8.63968 13.079 8.44891 13 8.25 13H5.25Z" fill="#155920" stroke="#155920" stroke-width="0.5"/>
</svg>
