<svg width="22" height="21" viewBox="0 0 22 21" fill="none" xmlns="http://www.w3.org/2000/svg">
<path fill-rule="evenodd" clip-rule="evenodd" d="M10.9999 0C11.3993 0 11.7603 0.237649 11.9183 0.604473L14.3873 6.33763L20.6028 6.9141C21.0005 6.95099 21.3381 7.22097 21.4615 7.60081C21.5849 7.98066 21.4705 8.39751 21.1704 8.66111L16.4808 12.7809L17.8532 18.8703C17.9411 19.2599 17.7886 19.6644 17.4655 19.8992C17.1424 20.1339 16.7106 20.1539 16.3672 19.95L10.9999 16.763L5.63257 19.95C5.28916 20.1539 4.85734 20.1339 4.53423 19.8992C4.21111 19.6644 4.05867 19.2599 4.14648 18.8703L5.51892 12.7809L0.829311 8.66111C0.529257 8.39751 0.414823 7.98066 0.538242 7.60081C0.661661 7.22097 0.999262 6.95099 1.39695 6.9141L7.61245 6.33763L10.0814 0.604473C10.2394 0.237649 10.6005 0 10.9999 0ZM10.9999 3.52827L9.2145 7.67405C9.06973 8.01023 8.75286 8.24045 8.3884 8.27425L3.89383 8.69111L7.28499 11.6702C7.55998 11.9118 7.68101 12.2843 7.60053 12.6413L6.60809 17.0448L10.4893 14.7402C10.804 14.5533 11.1957 14.5533 11.5104 14.7402L15.3916 17.0448L14.3992 12.6413C14.3187 12.2843 14.4398 11.9118 14.7147 11.6702L18.1059 8.69111L13.6113 8.27425C13.2469 8.24045 12.93 8.01023 12.7852 7.67405L10.9999 3.52827Z" fill="#FEAA47"/>
</svg>
