<svg width="18" height="18" viewBox="0 0 18 18" fill="none" xmlns="http://www.w3.org/2000/svg">
<path d="M14 10C16.2091 10 18 11.7909 18 14C18 16.2091 16.2091 18 14 18C12.1364 18 10.5705 16.7256 10.1262 15.0008L0.999924 15.0001C0.447668 15 0 14.5523 0 14C0 13.4478 0.44773 13 1.00002 13L10.126 13.0002C10.5699 11.2749 12.1361 10 14 10ZM14 12C12.8954 12 12 12.8954 12 14C12 15.1046 12.8954 16 14 16C15.1046 16 16 15.1046 16 14C16 12.8954 15.1046 12 14 12ZM4 0C5.86393 0 7.43009 1.27489 7.87405 3.00024L17 3.00002C17.5523 3.00001 18 3.44776 18 4.00005C18 4.55231 17.5523 5.00003 17.0001 5.00008L7.87379 5.00076C7.42948 6.7256 5.86357 8 4 8C1.79086 8 0 6.20914 0 4C0 1.79086 1.79086 0 4 0ZM4 2C2.89543 2 2 2.89543 2 4C2 5.10457 2.89543 6 4 6C5.10457 6 6 5.10457 6 4C6 2.89543 5.10457 2 4 2Z" fill="#155920"/>
</svg>
