<svg width="18" height="18" viewBox="0 0 18 18" fill="none" xmlns="http://www.w3.org/2000/svg">
<path d="M10.35 5.85C10.35 6.59558 9.74558 7.2 9 7.2C8.25442 7.2 7.65 6.59558 7.65 5.85C7.65 5.10442 8.25442 4.5 9 4.5C9.74558 4.5 10.35 5.10442 10.35 5.85Z" fill="#155920"/>
<path d="M6.75 13.5V11.7H8.1V9.9H7.2V8.1H9C9.49706 8.1 9.9 8.50294 9.9 9V11.7H11.25V13.5H6.75Z" fill="#155920"/>
<path fill-rule="evenodd" clip-rule="evenodd" d="M9 18C4.02944 18 0 13.9706 0 9C0 4.02944 4.02944 0 9 0C13.9706 0 18 4.02944 18 9C18 13.9706 13.9706 18 9 18ZM9 16.2C12.9764 16.2 16.2 12.9764 16.2 9C16.2 5.02355 12.9764 1.8 9 1.8C5.02355 1.8 1.8 5.02355 1.8 9C1.8 12.9764 5.02355 16.2 9 16.2Z" fill="#155920"/>
</svg>
