<svg width="15" height="20" viewBox="0 0 15 20" fill="none" xmlns="http://www.w3.org/2000/svg">
<path fill-rule="evenodd" clip-rule="evenodd" d="M3.43378 0H7.49057C8.3205 0 8.60764 0.0280499 8.92586 0.0964999C9.24396 0.16494 9.52554 0.27379 9.80239 0.43539C10.0792 0.597 10.3035 0.76664 10.8904 1.31438L13.5917 3.83562C14.1786 4.38336 14.3604 4.59267 14.5335 4.85107C14.7066 5.10947 14.8233 5.37226 14.8966 5.66925C14.97 5.96623 15 6.23419 15 7.00881V16.7951C15 17.9095 14.8757 18.3137 14.6422 18.7211C14.4088 19.1285 14.0662 19.4482 13.6297 19.6661C13.1931 19.884 12.7602 20 11.5662 20H3.43378C2.23978 20 1.8068 19.884 1.37029 19.6661C0.933793 19.4482 0.591214 19.1285 0.357771 18.7211C0.124318 18.3137 0 17.9095 0 16.7951V3.20486C0 2.09046 0.124318 1.68635 0.357771 1.27894C0.591214 0.87154 0.933793 0.5518 1.37029 0.33392C1.8068 0.11603 2.23978 0 3.43378 0ZM3.43378 2C2.9769 2 2.69062 2.01899 2.52427 2.04897C2.45911 2.06072 2.44471 2.06567 2.38086 2.09754C2.31779 2.12903 2.2811 2.16327 2.24736 2.22214C2.21322 2.28173 2.20791 2.29517 2.19533 2.35599C2.1632 2.51125 2.14286 2.77844 2.14286 3.20486V16.7951C2.14286 17.2216 2.1632 17.4887 2.19533 17.644C2.20791 17.7048 2.21322 17.7183 2.24736 17.7779C2.2811 17.8367 2.31779 17.871 2.38086 17.9025C2.44471 17.9343 2.45911 17.9393 2.52427 17.951C2.69062 17.981 2.9769 18 3.43378 18H11.5662C12.0231 18 12.3093 17.981 12.4757 17.951C12.5409 17.9393 12.5553 17.9343 12.6192 17.9025C12.6822 17.871 12.7189 17.8367 12.7527 17.7779C12.7867 17.7183 12.7921 17.7048 12.8046 17.644C12.8368 17.4887 12.8571 17.2216 12.8571 16.7951V8H9.86239C8.66839 8 8.23543 7.88397 7.79882 7.66608C7.36232 7.4482 7.01979 7.12846 6.78632 6.72106C6.55286 6.31365 6.42857 5.90954 6.42857 4.79514V2H3.43378ZM8.57143 2.08349V4.79514C8.57143 5.22156 8.59179 5.48875 8.62393 5.64401C8.63646 5.70483 8.64182 5.71827 8.67589 5.77786C8.70964 5.83673 8.74639 5.87097 8.80939 5.90246C8.87325 5.93433 8.88771 5.93928 8.95286 5.95103C9.11925 5.98101 9.40543 6 9.86239 6H12.7677C12.7541 5.97102 12.7376 5.94265 12.7167 5.91154C12.6326 5.78595 12.5231 5.6666 12.0765 5.24983L9.37521 2.72859C8.92864 2.31183 8.80071 2.20964 8.66625 2.1311C8.63282 2.11164 8.6025 2.09623 8.57143 2.08349Z" fill="#155920"/>
</svg>
