<svg width="20" height="20" viewBox="0 0 20 20" fill="none" xmlns="http://www.w3.org/2000/svg">
<path d="M20 10C20 15.5228 15.5228 20 10 20C4.47715 20 0 15.5228 0 10C0 4.47715 4.47715 0 10 0C15.5228 0 20 4.47715 20 10Z" fill="#F9F9F9"/>
<path d="M20 10C20 15.5228 15.5228 20 10 20C4.47715 20 0 15.5228 0 10C0 4.47715 4.47715 0 10 0C15.5228 0 20 4.47715 20 10Z" fill="url(#paint0_linear_827_6811)"/>
<path d="M18 10C18 14.4183 14.4183 18 10 18C5.58172 18 2 14.4183 2 10C2 5.58172 5.58172 2 10 2C14.4183 2 18 5.58172 18 10Z" fill="#F9F9F9"/>
<path d="M11.5172 6.78133H13.4852L10.8932 9.92533L13.7132 13.3333H11.6852L9.00916 10.0093V13.3333H7.22116V6.78133H9.00916V9.96133L11.5172 6.78133Z" fill="#131313"/>
<defs>
<linearGradient id="paint0_linear_827_6811" x1="0" y1="10" x2="20" y2="10" gradientUnits="userSpaceOnUse">
<stop stop-color="#28C22E"/>
<stop offset="1" stop-color="#197225"/>
</linearGradient>
</defs>
</svg>
