<svg width="40" height="40" viewBox="0 0 40 40" fill="none" xmlns="http://www.w3.org/2000/svg">
<rect width="40" height="40" rx="5.70302" fill="#FF2474"/>
<path d="M14.2986 10.96C14.0294 10.9599 13.7596 10.9697 13.5823 10.9896C12.7825 11.0792 12.0596 11.2723 11.3818 11.5814L16.2032 16.1385L19.3907 13.1236L19.3906 13.1225L19.3799 13.1324L19.0797 12.8548C18.7431 12.5434 18.494 12.3419 18.1951 12.1395C17.2512 11.5004 16.2195 11.1279 15.0117 10.9901C14.8366 10.9701 14.5678 10.9601 14.2986 10.96V10.96Z" fill="white"/>
<path d="M11.384 11.5811L11.224 11.657C10.5841 11.9608 9.86253 12.4756 9.38354 12.9701C8.93959 13.4284 8.66083 13.7963 8.3543 14.3283L8.20898 14.5855L13.0299 19.1396L16.2053 16.1381C16.2053 16.1381 11.385 11.5821 11.384 11.5811Z" fill="white"/>
<path d="M8.20727 14.5859L8.10343 14.816C7.85532 15.3659 7.69063 15.9446 7.60578 16.5642C7.56587 16.8557 7.56019 17.7313 7.59641 18.0073C7.76353 19.2805 8.23322 20.3401 9.0632 21.311L9.6411 21.9127C9.7103 21.9792 9.77289 22.0394 9.86505 22.1274L13.0266 19.1415C13.0398 19.129 8.20727 14.5859 8.20727 14.5859Z" fill="white"/>
<path d="M30.5363 14.5449C30.5318 14.5449 28.5793 16.3864 26.1419 18.6872L16.2012 28.1122C17.7552 29.5796 19.0389 30.7838 19.0622 30.795C19.0864 30.8067 19.1379 30.8262 19.1768 30.8383C19.2169 30.8508 19.2975 30.8578 19.3637 30.8545C19.5995 30.8427 19.2197 31.1875 24.5444 26.1515C27.2146 23.6261 29.4699 21.4811 29.5562 21.3848C29.9554 20.9392 30.2854 20.4591 30.5317 19.9656C31.3553 18.315 31.3941 16.4355 30.6393 14.7493C30.589 14.6369 30.5427 14.5449 30.5363 14.5449Z" fill="white"/>
<path d="M27.3284 11.5166L13.002 25.1004C13.002 25.1004 13.0075 25.1056 13.0076 25.1056C17.7769 20.5678 27.3465 11.5284 27.3465 11.5284C27.3427 11.5251 27.336 11.521 27.3284 11.5166V11.5166ZM27.3822 11.5435C27.3822 11.5435 13.0252 25.1139 13.0253 25.1138C14.0754 26.1064 15.1501 27.12 16.2001 28.1127L30.5352 14.5454L30.4583 14.3882C29.8491 13.2401 28.8242 12.2568 27.6117 11.6569L27.3822 11.5435Z" fill="white"/>
<path d="M11.4411 23.6161L9.86597 22.1271C13.0275 19.1412 18.892 13.5358 20.2433 12.3557C20.9227 11.844 21.6153 11.4868 22.3964 11.2453C22.8554 11.1034 23.2418 11.0235 23.7554 10.9641C24.0727 10.9274 24.8616 10.9228 25.1672 10.9558C25.6847 11.0116 26.179 11.1135 26.6321 11.2578C26.8685 11.3331 27.3202 11.5054 27.3821 11.5431C22.2733 16.4447 19.3519 19.1159 13.0162 25.1052L11.4411 23.6161Z" fill="white"/>
</svg>
