<svg width="40" height="40" viewBox="0 0 40 40" fill="none" xmlns="http://www.w3.org/2000/svg">
<path d="M35.3514 7.77051C36.2889 8.99885 37.0826 10.3333 37.7163 11.7472L19.7395 25.1772L12.2266 20.4042V14.6622L19.7395 19.4351L35.3514 7.77051Z" fill="#21A038"/>
<path d="M4.55927 19.9991C4.55927 19.7414 4.56547 19.4855 4.57787 19.231L0.0247968 19.0049C0.00929965 19.3347 5.50217e-06 19.6677 5.50217e-06 20.0037C-0.0019317 22.6295 0.507688 25.2298 1.49964 27.6554C2.49159 30.0811 3.94634 32.2844 5.78045 34.1389L9.01005 30.8674C7.59823 29.4424 6.47822 27.7486 5.7144 25.8834C4.95058 24.0182 4.55802 22.0185 4.55927 19.9991Z" fill="url(#paint0_linear_1458_1167)"/>
<path d="M19.7365 4.62042C19.9906 4.62042 20.2431 4.62985 20.4942 4.64241L20.722 0.0265021C20.3956 0.0107964 20.067 0.00294452 19.7365 0.00294452C17.1443 -0.000259062 14.5772 0.515474 12.1824 1.52053C9.78756 2.52559 7.61221 4.00017 5.78125 5.85962L9.01086 9.13268C10.417 7.70139 12.0885 6.5659 13.9292 5.79152C15.7699 5.01715 17.7434 4.61915 19.7365 4.62042Z" fill="url(#paint1_linear_1458_1167)"/>
<path d="M19.7352 35.3798C19.481 35.3798 19.2284 35.3798 18.9759 35.3594L18.748 39.9737C19.0755 39.9904 19.4046 39.9989 19.7352 39.9989C22.3262 40.0016 24.8921 39.4855 27.2857 38.4802C29.6792 37.4748 31.8532 36 33.6827 34.1406L30.4593 30.8691C29.0529 32.2997 27.3815 33.4345 25.5412 34.2086C23.7009 34.9827 21.7277 35.3808 19.7352 35.3798Z" fill="url(#paint2_linear_1458_1167)"/>
<path d="M28.2912 7.30319L32.1283 4.43689C28.6211 1.55876 24.2433 -0.00798939 19.7305 3.06379e-05V4.61908C22.7864 4.61524 25.7713 5.55117 28.2912 7.30319Z" fill="url(#paint3_linear_1458_1167)"/>
<path d="M39.4693 20.0001C39.4717 18.7985 39.368 17.5989 39.1592 16.416L34.9115 19.5886C34.9115 19.7253 34.9115 19.8619 34.9115 20.0001C34.9126 22.1491 34.4681 24.2743 33.607 26.238C32.7457 28.2017 31.4868 29.9601 29.9121 31.3992L32.9759 34.831C35.0232 32.9579 36.6592 30.6698 37.7777 28.1149C38.8964 25.5599 39.4727 22.7952 39.4693 20.0001Z" fill="#21A038"/>
<path d="M19.7356 35.3802C17.6149 35.3809 15.5178 34.9303 13.5799 34.0575C11.6421 33.1847 9.90668 31.9091 8.48613 30.3135L5.10156 33.4169C6.94953 35.4921 9.20724 37.1503 11.7283 38.2843C14.2493 39.4181 16.9773 40.0024 19.7356 39.9991V35.3802Z" fill="url(#paint4_linear_1458_1167)"/>
<path d="M9.55867 8.59967L6.49642 5.16797C4.44858 7.04068 2.81201 9.32871 1.69285 11.8837C0.573697 14.4386 -0.0030512 17.2034 1.21392e-05 19.9988H4.55928C4.55834 17.85 5.0029 15.7247 5.86412 13.761C6.72535 11.7973 7.98405 10.0389 9.55867 8.59967Z" fill="url(#paint5_linear_1458_1167)"/>
<defs>
<linearGradient id="paint0_linear_1458_1167" x1="6.70253" y1="33.5625" x2="1.60155" y2="19.0125" gradientUnits="userSpaceOnUse">
<stop offset="0.14" stop-color="#F1E813"/>
<stop offset="0.3" stop-color="#E6E418"/>
<stop offset="0.58" stop-color="#C9DA26"/>
<stop offset="0.89" stop-color="#A2CC39"/>
</linearGradient>
<linearGradient id="paint1_linear_1458_1167" x1="7.08301" y1="6.67631" x2="19.9561" y2="1.83568" gradientUnits="userSpaceOnUse">
<stop offset="0.06" stop-color="#0FA7DF"/>
<stop offset="0.54" stop-color="#0098F8"/>
<stop offset="0.92" stop-color="#0290EA"/>
</linearGradient>
<linearGradient id="paint2_linear_1458_1167" x1="18.4475" y1="37.2111" x2="32.9744" y2="33.9728" gradientUnits="userSpaceOnUse">
<stop offset="0.12" stop-color="#A2CC39"/>
<stop offset="0.28" stop-color="#86C239"/>
<stop offset="0.87" stop-color="#219F38"/>
</linearGradient>
<linearGradient id="paint3_linear_1458_1167" x1="18.7821" y1="1.54704" x2="31.2145" y2="5.3327" gradientUnits="userSpaceOnUse">
<stop offset="0.06" stop-color="#0290EA"/>
<stop offset="0.79" stop-color="#0C89CA"/>
</linearGradient>
<linearGradient id="paint4_linear_1458_1167" x1="6.24525" y1="32.8546" x2="19.7902" y2="37.8497" gradientUnits="userSpaceOnUse">
<stop offset="0.13" stop-color="#F1E813"/>
<stop offset="0.3" stop-color="#EAE616"/>
<stop offset="0.53" stop-color="#D8DF1F"/>
<stop offset="0.8" stop-color="#BAD52D"/>
<stop offset="0.98" stop-color="#A2CC39"/>
</linearGradient>
<linearGradient id="paint5_linear_1458_1167" x1="1.6985" y1="20.558" x2="7.24536" y2="6.32019" gradientUnits="userSpaceOnUse">
<stop offset="0.07" stop-color="#A2CC39"/>
<stop offset="0.26" stop-color="#81C45E"/>
<stop offset="0.92" stop-color="#0FA7DF"/>
</linearGradient>
</defs>
</svg>
