<svg width="24" height="24" viewBox="0 0 24 24" fill="none" xmlns="http://www.w3.org/2000/svg">
<path d="M13.25 15.75C13.25 16.4404 12.6904 17 12 17C11.3096 17 10.75 16.4404 10.75 15.75C10.75 15.0596 11.3096 14.5 12 14.5C12.6904 14.5 13.25 15.0596 13.25 15.75Z" fill="#155920"/>
<path d="M9.85693 7.77124C9.30322 8.26343 9.01758 8.9248 9 9.75537H10.7864C10.8083 9.38184 10.9358 9.08521 11.1687 8.86548C11.4016 8.64136 11.707 8.5293 12.085 8.5293C12.4585 8.5293 12.7617 8.63037 12.9946 8.83252C13.2231 9.03467 13.3374 9.29395 13.3374 9.61035C13.3374 9.92236 13.2583 10.1794 13.1001 10.3816C12.9463 10.5837 12.6562 10.8123 12.23 11.0671C11.7686 11.3396 11.4456 11.6362 11.261 11.957C11.072 12.2954 10.9995 12.7195 11.0435 13.2292L11.0566 13.6116H12.8035V13.2622C12.8035 12.937 12.8804 12.6733 13.0342 12.4712C13.188 12.269 13.4846 12.0405 13.9241 11.7856C14.8645 11.2319 15.3347 10.4871 15.3347 9.55103C15.3347 8.79517 15.0491 8.18213 14.4778 7.71191C13.8977 7.2373 13.1396 7 12.2036 7C11.2104 7 10.4282 7.25708 9.85693 7.77124Z" fill="#155920"/>
<path fill-rule="evenodd" clip-rule="evenodd" d="M2 12C2 6.47715 6.47715 2 12 2C17.5228 2 22 6.47715 22 12C22 17.5228 17.5228 22 12 22C6.47715 22 2 17.5228 2 12ZM12 4C7.58172 4 4 7.58172 4 12C4 16.4183 7.58172 20 12 20C16.4183 20 20 16.4183 20 12C20 7.58172 16.4183 4 12 4Z" fill="#155920"/>
</svg>
