<svg width="20" height="20" viewBox="0 0 20 20" fill="none" xmlns="http://www.w3.org/2000/svg">
<path d="M11.25 13.75C11.25 14.4404 10.6904 15 10 15C9.30964 15 8.75 14.4404 8.75 13.75C8.75 13.0596 9.30964 12.5 10 12.5C10.6904 12.5 11.25 13.0596 11.25 13.75Z" fill="#155920"/>
<path d="M7.85693 5.77124C7.30322 6.26343 7.01758 6.9248 7 7.75537H8.78638C8.80835 7.38184 8.93579 7.08521 9.1687 6.86548C9.40161 6.64136 9.70703 6.5293 10.085 6.5293C10.4585 6.5293 10.7617 6.63037 10.9946 6.83252C11.2231 7.03467 11.3374 7.29395 11.3374 7.61035C11.3374 7.92236 11.2583 8.17944 11.1001 8.38159C10.9463 8.58374 10.6562 8.81226 10.23 9.06714C9.76855 9.3396 9.44556 9.63623 9.26099 9.95703C9.07202 10.2954 8.99951 10.7195 9.04346 11.2292L9.05664 11.6116H10.8035V11.2622C10.8035 10.937 10.8804 10.6733 11.0342 10.4712C11.188 10.269 11.4846 10.0405 11.9241 9.78564C12.8645 9.23193 13.3347 8.48706 13.3347 7.55103C13.3347 6.79517 13.0491 6.18213 12.4778 5.71191C11.8977 5.2373 11.1396 5 10.2036 5C9.21045 5 8.42822 5.25708 7.85693 5.77124Z" fill="#155920"/>
<path fill-rule="evenodd" clip-rule="evenodd" d="M0 10C0 4.47715 4.47715 0 10 0C15.5228 0 20 4.47715 20 10C20 15.5228 15.5228 20 10 20C4.47715 20 0 15.5228 0 10ZM10 2C5.58172 2 2 5.58172 2 10C2 14.4183 5.58172 18 10 18C14.4183 18 18 14.4183 18 10C18 5.58172 14.4183 2 10 2Z" fill="#155920"/>
</svg>
