<svg width="14" height="14" viewBox="0 0 14 14" fill="none" xmlns="http://www.w3.org/2000/svg">
<path d="M7.00023 0.333008C7.2665 0.333008 7.50722 0.491441 7.61254 0.73599L9.25851 4.5581L13.4022 4.94241C13.6673 4.967 13.8924 5.14699 13.9746 5.40022C14.0569 5.65345 13.9806 5.93135 13.7806 6.10708L10.6542 8.85359L11.5692 12.9132C11.6277 13.173 11.5261 13.4426 11.3107 13.5991C11.0952 13.7556 10.8074 13.769 10.5784 13.633L7.00023 11.5083L3.42204 13.633C3.1931 13.769 2.90522 13.7556 2.68981 13.5991C2.4744 13.4426 2.37277 13.173 2.43131 12.9132L3.34627 8.85359L0.219866 6.10708C0.0198302 5.93135 -0.0564593 5.65345 0.02582 5.40022C0.108099 5.14699 0.333167 4.967 0.59829 4.94241L4.74196 4.5581L6.38793 0.73599C6.49325 0.491441 6.73397 0.333008 7.00023 0.333008Z" fill="#FEAA47"/>
</svg>
