<svg width="25" height="24" viewBox="0 0 25 24" fill="none" xmlns="http://www.w3.org/2000/svg">
<path d="M12 12.8762L17.4357 18.3118C17.8157 18.6918 18.4319 18.6918 18.8119 18.3118C19.1919 17.9318 19.1919 17.3156 18.8119 16.9356L13.3763 11.5L18.8119 6.0644C19.1919 5.68437 19.1919 5.06822 18.8119 4.68819C18.4319 4.30816 17.8157 4.30816 17.4357 4.68819L12 10.1238L6.56431 4.6881C6.18428 4.30807 5.56814 4.30807 5.18811 4.6881C4.80808 5.06813 4.80808 5.68428 5.18811 6.06431L10.6238 11.5L5.18811 16.9357C4.80808 17.3157 4.80808 17.9319 5.18811 18.3119C5.56814 18.6919 6.18428 18.6919 6.56431 18.3119L12 12.8762Z" fill="#E86513"/>
</svg>
