<svg width="13" height="14" viewBox="0 0 13 14" fill="none" xmlns="http://www.w3.org/2000/svg">
<path d="M7.80469 9.26349H0.830966V7.04545H7.72798C8.24787 7.04545 8.67401 6.96875 9.00639 6.81534C9.33878 6.66193 9.58381 6.4446 9.74148 6.16335C9.89915 5.8821 9.97798 5.54972 9.97798 5.16619C9.97798 4.79119 9.89915 4.45241 9.74148 4.14986C9.58381 3.8473 9.34304 3.60653 9.01918 3.42756C8.69531 3.24858 8.29048 3.15909 7.80469 3.15909H5.43963V14H2.69105V0.909091H7.80469C8.8402 0.909091 9.72656 1.09446 10.4638 1.4652C11.2053 1.83168 11.772 2.33452 12.1641 2.97372C12.5561 3.60866 12.75 4.32883 12.7457 5.13423C12.75 5.97798 12.5518 6.70881 12.1513 7.3267C11.7507 7.9446 11.1797 8.42188 10.4382 8.75852C9.69673 9.09517 8.81889 9.26349 7.80469 9.26349ZM8.29688 10.1072V12.3253H0.830966V10.1072H8.29688Z" fill="#F5F5F5"/>
</svg>
