<svg width="32" height="18" viewBox="0 0 32 18" fill="none" xmlns="http://www.w3.org/2000/svg">
<g clip-path="url(#clip0_1258_969)">
<rect width="32" height="18" fill="white"/>
<path d="M24.8905 9.16592C24.8905 8.58184 24.5152 8.2399 23.9738 8.2399C23.4156 8.2399 23.0407 8.59036 23.0407 9.17444C23.0407 9.72498 23.4156 10.1259 23.9738 10.1259C24.5571 10.1259 24.8905 9.6919 24.8905 9.16592ZM26.5069 9.16592C26.5069 10.4677 25.4237 11.3271 23.9654 11.3271C22.4573 11.3271 21.3574 10.4177 21.3574 8.35664C21.3574 6.58771 22.4856 5.12999 24.1548 5.10218C24.8859 5.10218 26.4573 5.06752 26.4573 5.06752L25.7497 6.36846C25.7497 6.36846 24.4981 6.37048 24.3322 6.37048C23.6118 6.37048 22.9573 6.91306 22.8654 7.65582C23.2488 7.29694 23.7571 7.08823 24.3738 7.08823C25.7071 7.08823 26.5069 7.90614 26.5069 9.16592Z" fill="#131313"/>
<path d="M20.109 9.79709C20.109 9.79709 19.7283 10.0116 19.16 10.0528C18.5063 10.0713 17.9248 9.66857 17.9248 8.95092C17.9248 8.25044 18.4391 7.8495 19.1436 7.8495C19.5761 7.8495 20.1485 8.143 20.1485 8.143C20.1485 8.143 20.5668 7.39103 20.7838 7.01556C20.3871 6.7206 19.8574 6.55922 19.243 6.55922C17.6903 6.55922 16.4883 7.55006 16.4883 8.94217C16.4883 10.3516 17.6182 11.3199 19.243 11.2904C19.6976 11.2733 20.324 11.1179 20.7055 10.8782L20.109 9.79709Z" fill="#131313"/>
<path d="M0.0351562 3.92453L2.21138 7.80692L2.21149 10.1741L0.0387398 14.0488L0.0351562 3.92453Z" fill="#5454AE"/>
<path d="M8.38672 6.39382L10.4251 5.14649L14.5961 5.14335L8.38672 8.94141V6.39382Z" fill="#DD1059"/>
<path d="M8.37827 3.90188L8.38958 9.04102L6.20898 7.70386V0.02038L8.37827 3.90188Z" fill="#F9AD1C"/>
<path d="M14.5989 5.14237L10.4278 5.14551L8.37826 3.90098L6.20898 0.0194888L14.5989 5.14237Z" fill="#F36228"/>
<path d="M8.38924 14.0697V11.5758L6.20898 10.2639L6.20932 17.9541L8.38924 14.0697Z" fill="#58C034"/>
<path d="M10.4217 12.835L2.21138 7.80718L0.0351562 3.92479L14.5895 12.8301L10.4217 12.835Z" fill="#3E88D0"/>
<path d="M6.20898 17.9541L8.3889 14.0697L10.4222 12.8338L14.59 12.829L6.20898 17.9541Z" fill="#27843B"/>
<path d="M0.0390625 14.0488L6.2255 10.2649L4.14514 8.99088L2.2117 10.1739L0.0390625 14.0488Z" fill="#8D3CA2"/>
<path d="M31.92 6.67639V11.1475H30.3452V8.01154H28.8288V11.1475H27.2539V6.67639H31.92Z" fill="#131313"/>
</g>
<defs>
<clipPath id="clip0_1258_969">
<rect width="32" height="18" fill="white"/>
</clipPath>
</defs>
</svg>
