<svg width="18" height="18" viewBox="0 0 18 18" fill="none" xmlns="http://www.w3.org/2000/svg">
<path d="M8 0C12.4183 0 16 3.58172 16 8C16 9.8482 15.3733 11.55 14.3207 12.9045L17.5004 16.0858C17.8907 16.4763 17.8905 17.1095 17.5 17.5C17.1095 17.8905 16.4763 17.8907 16.0858 17.5004L12.9045 14.3207C11.55 15.3733 9.8482 16 8 16C3.58172 16 0 12.4183 0 8C0 3.58172 3.58172 0 8 0ZM8 2C4.68629 2 2 4.68629 2 8C2 11.3137 4.68629 14 8 14C11.3137 14 14 11.3137 14 8C14 4.68629 11.3137 2 8 2Z" fill="#676879"/>
</svg>
