<svg width="64" height="105" viewBox="0 0 64 105" fill="none" xmlns="http://www.w3.org/2000/svg">
<g filter="url(#filter0_d_363_17040)">
<path d="M52.0872 41.9998L67.4765 50.0738C66.2887 49.4506 65.0537 48.9471 63.7707 48.562C61.5933 47.9058 59.1603 47.5319 56.4899 47.438L41.1006 39.3633C43.7717 39.4571 46.204 39.8311 48.3814 40.4872C49.6636 40.8723 50.8993 41.3765 52.0872 41.9998Z" fill="#C1FFCC"/>
<mask id="mask0_363_17040" style="mask-type:luminance" maskUnits="userSpaceOnUse" x="41" y="39" width="27" height="12">
<path d="M52.0872 42.0037L67.4765 50.0777C66.2887 49.4545 65.0537 48.951 63.7707 48.5659C61.5933 47.9097 59.1603 47.5358 56.4899 47.4419L41.1006 39.3672C43.7717 39.461 46.204 39.835 48.3814 40.4911C49.6636 40.8763 50.8993 41.3804 52.0872 42.0037Z" fill="white"/>
</mask>
<g mask="url(#mask0_363_17040)">
<path d="M56.4899 47.4419L41.1006 39.3672C43.3426 39.4456 45.4169 39.7222 47.3141 40.197L62.7034 48.2717C60.8063 47.797 58.7319 47.5211 56.4899 47.4419Z" fill="#C1FFCC"/>
<path d="M62.7038 48.272L47.3145 40.1973C47.6768 40.2883 48.0332 40.3863 48.3825 40.4914C49.3968 40.796 50.3813 41.1748 51.336 41.6279L66.7254 49.7027C65.7706 49.2496 64.7854 48.8707 63.7718 48.5661C63.4219 48.4611 63.0661 48.363 62.7038 48.272Z" fill="#C1FFCC"/>
<path d="M66.7243 49.7017L51.335 41.627C51.5876 41.7467 51.8381 41.872 52.0864 42.0023L67.4758 50.0763C67.2275 49.9468 66.977 49.8215 66.7243 49.7017Z" fill="#C1FFCC"/>
</g>
<path d="M59.5235 72.9911C59.5526 72.9225 59.5831 72.8546 59.6107 72.7859C59.6274 72.7446 59.647 72.7047 59.6629 72.6634C59.713 72.5317 59.7501 72.3952 59.7944 72.2607C59.8357 72.1347 59.8815 72.0107 59.9178 71.8826C59.9693 71.7012 60.0093 71.515 60.0499 71.3294C60.0775 71.2068 60.1095 71.0864 60.1327 70.9618C60.1704 70.7531 60.1951 70.5381 60.2213 70.3238C60.2344 70.216 60.2532 70.1109 60.2634 70.0017C60.2924 69.6754 60.3084 69.3434 60.3091 69.0052C60.3157 65.7287 59.0654 63.5284 56.5642 62.1958L41.1748 54.1211C43.6753 55.4537 44.9256 57.6539 44.9198 60.9305C44.9191 61.2694 44.9031 61.6013 44.8741 61.9269C44.8646 62.0362 44.845 62.1405 44.8319 62.2484C44.8065 62.4626 44.7818 62.6776 44.7433 62.8863C44.7208 63.0109 44.6882 63.1314 44.6606 63.2539C44.6192 63.4395 44.5793 63.6258 44.5284 63.8071C44.4921 63.9353 44.4471 64.0585 44.4057 64.1846C44.3477 64.3618 44.2903 64.5396 44.2221 64.7119C44.1945 64.7805 44.1647 64.8477 44.1357 64.9157C44.0478 65.1229 43.9513 65.3274 43.8482 65.5284C43.8162 65.5907 43.7857 65.6537 43.7523 65.7154C43.6942 65.8218 43.6267 65.924 43.5642 66.0284C43.4394 66.2385 43.3094 66.4464 43.1671 66.6488C43.0894 66.7595 43.0067 66.8673 42.9239 66.9751C42.7859 67.1551 42.6422 67.3316 42.4897 67.5052C42.3416 67.674 42.1964 67.8449 42.0345 68.0073C41.8087 68.2349 41.5734 68.4499 41.3324 68.6565C41.2794 68.7013 41.2242 68.744 41.1705 68.7881C40.9868 68.9394 40.7987 69.085 40.6063 69.2251C40.5359 69.2762 40.4655 69.3273 40.3936 69.3771C40.2346 69.487 40.0691 69.5892 39.9042 69.6915C39.7815 69.7671 39.6603 69.8448 39.5347 69.917C39.3706 70.0101 39.2007 70.0962 39.0315 70.1817C38.9052 70.2454 38.7818 70.3126 38.6525 70.3721C38.4776 70.4534 38.296 70.5255 38.1152 70.599C37.9817 70.6536 37.8503 70.7125 37.713 70.7629C37.5199 70.8343 37.3202 70.8952 37.1213 70.9583C36.9884 71.0003 36.8592 71.0472 36.7234 71.0857C36.4998 71.1487 36.2682 71.2012 36.0373 71.2552C35.919 71.2825 35.8042 71.3154 35.6837 71.3406C35.3287 71.4134 34.9657 71.4764 34.5939 71.5269C34.1924 71.5815 33.7974 71.6221 33.4054 71.6564C33.2877 71.6669 33.1716 71.6739 33.0547 71.6823C32.7715 71.7026 32.4913 71.7173 32.2139 71.7271C32.0949 71.7313 31.9751 71.7355 31.8567 71.7376C31.5293 71.7432 31.2062 71.7418 30.8867 71.732C30.8359 71.7306 30.7829 71.7313 30.7321 71.7292C30.3647 71.7152 30.0038 71.6893 29.6466 71.655C29.5457 71.6452 29.447 71.6319 29.3468 71.6207C29.0847 71.5913 28.8255 71.5563 28.5684 71.5157C28.4574 71.4981 28.3463 71.4799 28.2359 71.4603C27.9615 71.4113 27.6899 71.3553 27.4213 71.293C27.3501 71.2769 27.2782 71.2629 27.2078 71.2454C26.9639 71.1851 26.7265 71.1137 26.4876 71.043C26.37 71.008 26.2494 70.9786 26.1333 70.9414C25.7833 70.8287 25.4392 70.7041 25.1008 70.5675C24.7995 70.4457 24.4997 70.3126 24.2005 70.1719C23.9529 70.0556 23.7061 69.9352 23.46 69.8056L38.8493 77.8804C39.0744 77.998 39.2994 78.1108 39.5252 78.2179C39.5463 78.2277 39.5681 78.2361 39.5899 78.2459C39.889 78.3867 40.1889 78.5197 40.4902 78.6416C40.8285 78.7781 41.1727 78.9028 41.5226 79.0155C41.6395 79.0533 41.76 79.0827 41.8784 79.1177C42.0962 79.1822 42.3125 79.2501 42.534 79.3061C42.5543 79.311 42.5754 79.3145 42.5964 79.3201C42.6676 79.3376 42.7409 79.3516 42.8121 79.3677C43.0793 79.4301 43.3501 79.4854 43.6238 79.5344C43.7341 79.554 43.846 79.5722 43.9578 79.5897C44.2141 79.6303 44.4733 79.6646 44.7354 79.6947C44.8356 79.706 44.9343 79.7193 45.0352 79.7291C45.3924 79.7634 45.7533 79.7893 46.1207 79.8033C46.1715 79.8054 46.2245 79.804 46.2753 79.8061C46.5948 79.8159 46.9179 79.8173 47.2446 79.8117C47.3637 79.8096 47.4835 79.8054 47.6033 79.8012C47.8806 79.7914 48.1609 79.7767 48.4433 79.7564C48.5602 79.748 48.6764 79.741 48.794 79.7305C49.1853 79.6961 49.581 79.6555 49.9825 79.6009C50.3543 79.5505 50.7173 79.4882 51.0731 79.4146C51.1907 79.3901 51.3025 79.3579 51.4186 79.3313C51.6524 79.2774 51.887 79.2242 52.1128 79.1604C52.2471 79.1219 52.3763 79.0757 52.5077 79.0337C52.7074 78.9707 52.9078 78.9091 53.1016 78.8376C53.2389 78.7872 53.3695 78.7284 53.5039 78.6738C53.6542 78.6128 53.8081 78.5568 53.954 78.4903C53.9838 78.477 54.0114 78.4602 54.0411 78.4462C54.1704 78.386 54.2945 78.3194 54.4201 78.2557C54.5893 78.1696 54.7592 78.0841 54.9233 77.991C55.0489 77.9196 55.1709 77.8418 55.2936 77.7655C55.4039 77.6969 55.5194 77.6346 55.6276 77.5624C55.6806 77.5267 55.7307 77.4875 55.7829 77.4511C55.8548 77.4014 55.9252 77.3503 55.9957 77.2991C56.1888 77.1591 56.3768 77.0134 56.5613 76.8615C56.6143 76.8174 56.6687 76.7761 56.7217 76.7312C56.7435 76.7123 56.7667 76.6955 56.7885 76.6766C57.0071 76.4868 57.2183 76.2887 57.4238 76.0821C57.5298 75.9749 57.6329 75.8671 57.7331 75.7579C57.7861 75.7004 57.8282 75.6381 57.879 75.5793C58.0308 75.4056 58.1753 75.2292 58.3132 75.0492C58.3633 74.9841 58.4228 74.9232 58.4708 74.8566C58.502 74.8132 58.526 74.7663 58.5564 74.7229C58.698 74.5205 58.828 74.3132 58.9529 74.1031C58.9964 74.0296 59.0509 73.9603 59.0923 73.8854C59.1104 73.8538 59.1242 73.8202 59.1424 73.788C59.1758 73.7264 59.2055 73.6641 59.2375 73.6017C59.3391 73.4029 59.435 73.1991 59.5235 72.9911Z" fill="url(#paint0_linear_363_17040)"/>
<path d="M29.492 91.6578L14.1027 83.583C11.1252 82.0208 8.42428 79.9109 6 77.252L21.3893 85.326C23.8136 87.9856 26.5145 90.0955 29.492 91.6578Z" fill="#C1FFCC"/>
<mask id="mask1_363_17040" style="mask-type:luminance" maskUnits="userSpaceOnUse" x="6" y="77" width="24" height="15">
<path d="M29.493 91.6578L14.1037 83.583C11.1262 82.0208 8.42525 79.9109 6.00098 77.252L21.3903 85.326C23.8146 87.9856 26.5155 90.0955 29.493 91.6578Z" fill="white"/>
</mask>
<g mask="url(#mask1_363_17040)">
<path d="M29.493 91.6578L14.1037 83.583C11.1262 82.0208 8.42525 79.9109 6.00098 77.252L21.3903 85.326C23.8146 87.9856 26.5155 90.0955 29.493 91.6578Z" fill="#C1FFCC"/>
</g>
<path d="M21.3893 85.3312L6 77.2572L17.0381 64.8184L32.4275 72.8931L21.3893 85.3312Z" fill="#C7F5D6"/>
<path d="M39.4014 62.012L24.012 53.9373L21.5449 43.6504L36.9343 51.7244L39.4014 62.012Z" fill="#C7F5D6"/>
<g filter="url(#filter1_d_363_17040)">
<path d="M36.9343 51.7229L21.5449 43.6488L38.9461 23.1094L54.3362 31.1834L36.9343 51.7229Z" fill="url(#paint1_linear_363_17040)"/>
</g>
<path d="M25.7526 35.0613L10.3633 26.9873L10.3901 12.6641L25.7802 20.7381L25.7526 35.0613Z" fill="#C7F5D6"/>
<path d="M25.7787 20.7371L10.3887 12.663L59.5407 6L74.9308 14.0748L25.7787 20.7371Z" fill="#C1FFCC"/>
<path d="M69.9072 51.5595C71.8188 52.9047 73.3131 54.7962 74.3898 57.2394C75.4665 59.6826 76.0067 62.5985 76.0002 65.9822L75.9994 66.2469C75.9856 73.5044 73.594 79.7725 68.8312 85.0504C64.0625 90.329 57.7037 93.5103 49.7477 94.5887C37.9356 96.1895 28.4795 93.1041 21.3896 85.3291L32.4278 72.891C35.0285 75.6059 37.7178 77.5211 40.4891 78.643C43.2604 79.7648 46.4231 80.0841 49.9822 79.6023C53.0272 79.1899 55.506 78.0148 57.4235 76.0835C59.3417 74.1515 60.303 71.7923 60.3081 69.0052C60.3146 65.7287 59.0643 63.5284 56.5631 62.1951C54.0619 60.8625 50.5594 60.4984 46.0543 61.109L39.4015 62.011L36.9344 51.7241L54.3356 31.1846L25.7532 35.0578L25.7808 20.7346L74.9329 14.0723L74.9089 26.6504L56.4905 47.435C59.1616 47.5288 61.5939 47.9027 63.7713 48.5589C65.9538 49.2136 68.0013 50.2136 69.9072 51.5595Z" fill="url(#paint2_linear_363_17040)"/>
<path d="M69.9072 51.5595C71.8188 52.9047 73.3131 54.7961 74.3898 57.2394C75.4665 59.6826 76.0067 62.5985 76.0002 65.9822L75.9994 66.2469C75.9856 73.5044 73.594 79.7725 68.8312 85.0504C64.0625 90.329 57.7037 93.5103 49.7477 94.5887C37.9356 96.1895 28.4795 93.1041 21.3896 85.3291L32.4278 72.891C35.0285 75.6059 37.7178 77.5211 40.4891 78.643C43.2604 79.7648 46.4231 80.0841 49.9822 79.6023C53.0272 79.1899 55.506 78.0148 57.4235 76.0835C59.3417 74.1515 60.303 71.7923 60.3081 69.0052C60.3146 65.7287 59.0643 63.5284 56.5631 62.1951C54.0619 60.8625 50.5594 60.4984 46.0543 61.109L39.4015 62.011L36.9344 51.7241L54.3356 31.1846L25.7532 35.0578L25.7808 20.7346L74.9329 14.0723L74.9089 26.6504L56.4905 47.435C59.1616 47.5288 61.5939 47.9027 63.7713 48.5589C65.9538 49.2136 68.0013 50.2136 69.9072 51.5595Z" fill="url(#paint3_linear_363_17040)"/>
</g>
<defs>
<filter id="filter0_d_363_17040" x="0" y="0" width="86" height="104.999" filterUnits="userSpaceOnUse" color-interpolation-filters="sRGB">
<feFlood flood-opacity="0" result="BackgroundImageFix"/>
<feColorMatrix in="SourceAlpha" type="matrix" values="0 0 0 0 0 0 0 0 0 0 0 0 0 0 0 0 0 0 127 0" result="hardAlpha"/>
<feMorphology radius="2" operator="dilate" in="SourceAlpha" result="effect1_dropShadow_363_17040"/>
<feOffset dx="2" dy="2"/>
<feGaussianBlur stdDeviation="3"/>
<feComposite in2="hardAlpha" operator="out"/>
<feColorMatrix type="matrix" values="0 0 0 0 0 0 0 0 0 0 0 0 0 0 0 0 0 0 0.08 0"/>
<feBlend mode="normal" in2="BackgroundImageFix" result="effect1_dropShadow_363_17040"/>
<feBlend mode="normal" in="SourceGraphic" in2="effect1_dropShadow_363_17040" result="shape"/>
</filter>
<filter id="filter1_d_363_17040" x="15.5449" y="17.1094" width="48.791" height="44.6133" filterUnits="userSpaceOnUse" color-interpolation-filters="sRGB">
<feFlood flood-opacity="0" result="BackgroundImageFix"/>
<feColorMatrix in="SourceAlpha" type="matrix" values="0 0 0 0 0 0 0 0 0 0 0 0 0 0 0 0 0 0 127 0" result="hardAlpha"/>
<feMorphology radius="2" operator="dilate" in="SourceAlpha" result="effect1_dropShadow_363_17040"/>
<feOffset dx="2" dy="2"/>
<feGaussianBlur stdDeviation="3"/>
<feComposite in2="hardAlpha" operator="out"/>
<feColorMatrix type="matrix" values="0 0 0 0 0 0 0 0 0 0 0 0 0 0 0 0 0 0 0.08 0"/>
<feBlend mode="normal" in2="BackgroundImageFix" result="effect1_dropShadow_363_17040"/>
<feBlend mode="normal" in="SourceGraphic" in2="effect1_dropShadow_363_17040" result="shape"/>
</filter>
<linearGradient id="paint0_linear_363_17040" x1="23.4584" y1="66.9686" x2="60.3078" y2="66.9686" gradientUnits="userSpaceOnUse">
<stop offset="0.2028" stop-color="#95F5A6"/>
<stop offset="1" stop-color="white"/>
</linearGradient>
<linearGradient id="paint1_linear_363_17040" x1="37.9406" y1="23.1094" x2="37.9406" y2="51.7229" gradientUnits="userSpaceOnUse">
<stop stop-color="#95F5A6"/>
<stop offset="1" stop-color="#C7F5D6"/>
</linearGradient>
<linearGradient id="paint2_linear_363_17040" x1="48.6953" y1="20.9071" x2="48.6953" y2="98.146" gradientUnits="userSpaceOnUse">
<stop stop-color="#C7F5D6"/>
<stop offset="0.5232" stop-color="#C1FFCC"/>
<stop offset="1" stop-color="white"/>
</linearGradient>
<linearGradient id="paint3_linear_363_17040" x1="48.6953" y1="20.9071" x2="48.6953" y2="98.146" gradientUnits="userSpaceOnUse">
<stop stop-color="white"/>
<stop offset="0.5232" stop-color="#C1FFCC"/>
<stop offset="1" stop-color="white"/>
</linearGradient>
</defs>
</svg>
