<svg width="88" height="105" viewBox="0 0 88 105" fill="none" xmlns="http://www.w3.org/2000/svg">
<g filter="url(#filter0_d_363_17913)">
<path d="M33.6341 94.9991L23.3193 89.9236L23.4442 29.2793L33.7589 34.3548L33.6341 94.9991Z" fill="#B7D1BD"/>
<path d="M39.097 16.4147L28.7822 11.3391L40.6647 9.82812L50.9794 14.9037L39.097 16.4147Z" fill="#B7D1BD"/>
<path d="M16.3154 25.9479L39.0981 16.4173L50.9806 14.9062L50.8202 92.815L33.6342 95L33.759 34.3557L19.9375 39.4034L16.3154 25.9479Z" fill="url(#paint0_linear_363_17913)"/>
<path d="M16.3148 25.9441L6 20.8686L28.7827 11.3379L39.0975 16.4134L16.3148 25.9441Z" fill="#B7D1BD"/>
<path d="M19.9369 39.4002L9.6221 34.3246L6 20.8691L16.3148 25.9447L19.9369 39.4002Z" fill="#B7D1BD"/>
<path d="M83.0579 74.5452L70.9424 66.8245L95.8838 62.7188L107.999 70.4388L83.0579 74.5452Z" fill="#B7D1BD"/>
<path d="M65.5676 91.1718L53.4521 83.4511L53.4722 70.8164L65.5876 78.5371L65.5676 91.1718Z" fill="#B7D1BD"/>
<path d="M92.5395 30.0074C92.2377 29.7054 91.9148 29.4443 91.5701 29.2246L79.4552 21.5039C79.7999 21.7235 80.1228 21.9847 80.4246 22.2866C81.8186 23.6934 82.5171 25.8922 82.5125 28.8912C82.5119 29.2936 82.4942 29.692 82.4662 30.0891C82.4571 30.2163 82.4416 30.3428 82.4296 30.4694C82.4045 30.7399 82.3753 31.0097 82.337 31.2782C82.3165 31.4235 82.2919 31.5674 82.2673 31.7121C82.225 31.9638 82.1764 32.2142 82.1227 32.464C82.0913 32.6079 82.0604 32.7519 82.025 32.8945C81.9615 33.155 81.8889 33.4141 81.8129 33.6719C81.7752 33.7998 81.7409 33.929 81.6997 34.0562C81.6403 34.241 81.5729 34.4245 81.5066 34.6086C81.4494 34.7686 81.3945 34.9293 81.3322 35.0887C81.2602 35.2728 81.179 35.4549 81.1007 35.6371C81.0339 35.7917 80.9704 35.9471 80.899 36.1011C80.7309 36.4626 80.5526 36.8229 80.3577 37.1797C80.1788 37.5098 79.981 37.8553 79.7656 38.2155C79.6764 38.3642 79.5712 38.5262 79.4758 38.6802C79.3415 38.8972 79.2134 39.1087 79.0665 39.3357C78.9534 39.5111 78.8231 39.7 78.7025 39.8808C78.5556 40.1017 78.4161 40.316 78.2583 40.5456C78.128 40.7358 77.9806 40.9393 77.8428 41.1348C77.6771 41.3705 77.5187 41.5995 77.3421 41.8439C77.1929 42.0501 77.0272 42.2704 76.87 42.4827C76.6865 42.7317 76.5105 42.9741 76.3162 43.2319C75.9944 43.6591 75.6543 44.101 75.3034 44.5516C75.2016 44.6822 75.0959 44.8168 74.9919 44.9493C74.7226 45.2922 74.4454 45.6417 74.1602 45.9979C74.0476 46.1385 73.9362 46.2784 73.8207 46.421C73.4303 46.9051 73.0302 47.3966 72.6107 47.9041L53.4707 70.8126L65.5856 78.5333L84.7256 55.6249C85.1457 55.1167 85.5458 54.6245 85.9368 54.1398C86.0511 53.9978 86.162 53.8586 86.274 53.7186C86.5592 53.3624 86.8364 53.0129 87.105 52.6707C87.2096 52.5375 87.3159 52.4029 87.4183 52.2717C87.7652 51.8258 88.1024 51.3879 88.4214 50.9654C88.4248 50.9607 88.4276 50.9567 88.4311 50.952C88.6311 50.6862 88.8129 50.4358 89.0021 50.1793C89.1524 49.9751 89.3124 49.7628 89.4559 49.5646C89.6451 49.3028 89.8154 49.0564 89.9926 48.8047C90.1183 48.6259 90.2532 48.4391 90.3727 48.2657C90.5356 48.0287 90.6802 47.8064 90.8316 47.5787C90.9471 47.4046 91.0728 47.2232 91.1814 47.0545C91.3215 46.8375 91.4432 46.636 91.5718 46.4284C91.673 46.2657 91.7839 46.095 91.8782 45.9376C91.8793 45.9363 91.8799 45.9349 91.8805 45.9329C92.0959 45.5734 92.2937 45.2279 92.4726 44.8978C92.6669 44.5409 92.8453 44.1814 93.0139 43.8191C93.0253 43.795 93.039 43.7709 93.0505 43.7461C93.1099 43.6169 93.1596 43.485 93.2156 43.3551C93.2945 43.1723 93.3751 42.9902 93.4471 42.8067C93.5094 42.6474 93.5643 42.4874 93.6214 42.3273C93.6872 42.1439 93.7552 41.9604 93.8146 41.7749C93.8261 41.7395 93.8409 41.704 93.8518 41.6685C93.8804 41.5768 93.9004 41.483 93.9272 41.3913C94.0033 41.1328 94.0758 40.8744 94.1393 40.6132C94.1742 40.47 94.2056 40.3267 94.237 40.1827C94.2907 39.933 94.3393 39.6826 94.3816 39.4308C94.4062 39.2862 94.4308 39.1422 94.4514 38.9969C94.4897 38.7291 94.5188 38.4593 94.544 38.1881C94.556 38.0615 94.5714 37.935 94.5805 37.8078C94.6085 37.4107 94.6263 37.0123 94.6268 36.6099C94.632 33.613 93.9335 31.4141 92.5395 30.0074Z" fill="#B7D1BD"/>
<path d="M78.1971 17.6723C78.6766 17.3516 79.171 17.0496 79.6809 16.767C80.0981 16.536 80.5279 16.3204 80.9652 16.1142C81.0606 16.0693 81.1567 16.0245 81.2527 15.981C81.6951 15.7808 82.1455 15.5899 82.6079 15.4145C82.6719 15.3904 82.7382 15.3683 82.8022 15.3449C83.2343 15.1855 83.675 15.0375 84.1248 14.8996C84.2094 14.8735 84.2928 14.8461 84.3786 14.8206C84.8638 14.6773 85.36 14.5481 85.8652 14.4296C85.9727 14.4041 86.0813 14.3807 86.1899 14.3566C86.714 14.2401 87.245 14.133 87.7902 14.0432C88.3207 13.9562 88.8391 13.8926 89.3506 13.841C89.4804 13.8276 89.6095 13.8163 89.7381 13.8055C90.2263 13.764 90.7092 13.7346 91.1802 13.7259C91.1996 13.7259 91.2202 13.7239 91.2396 13.7232C91.7266 13.7158 92.201 13.7319 92.6697 13.76C92.7886 13.7674 92.9069 13.7761 93.0246 13.7855C93.4579 13.8196 93.8854 13.8658 94.3027 13.9308C94.3358 13.9361 94.3707 13.9388 94.4038 13.9441C94.8474 14.0165 95.2789 14.1109 95.7041 14.218C95.8122 14.2455 95.9196 14.2742 96.0265 14.3044C96.4323 14.4162 96.833 14.5387 97.2216 14.6833C97.2605 14.6974 97.2977 14.7141 97.336 14.7289C97.7515 14.8876 98.1579 15.063 98.554 15.2585C98.5688 15.2659 98.5837 15.2719 98.5985 15.2793C99.0267 15.4935 99.4433 15.7285 99.848 15.9863L87.7342 8.26625C87.5599 8.1551 87.3833 8.04797 87.205 7.94486C86.9689 7.80894 86.7289 7.68038 86.4854 7.55852C86.4705 7.55116 86.4556 7.54513 86.4408 7.53776C86.0447 7.34158 85.6377 7.16615 85.2222 7.00747C85.1845 6.99274 85.1473 6.97667 85.109 6.96261C84.8364 6.86151 84.5603 6.76642 84.2797 6.68072C84.1597 6.64456 84.0351 6.61644 83.9133 6.58297C83.8064 6.55351 83.7001 6.52472 83.5921 6.49726C83.1669 6.39013 82.7348 6.29505 82.2906 6.22274C82.2575 6.21738 82.2226 6.21471 82.1895 6.20935C81.7722 6.1444 81.3447 6.0982 80.9115 6.06405C80.7937 6.05468 80.6754 6.04597 80.5565 6.03861C80.0878 6.01049 79.6134 5.99442 79.1265 6.00178C79.107 6.00178 79.0865 6.00379 79.067 6.00446C78.5961 6.01317 78.1136 6.04263 77.6255 6.08414C77.4964 6.09485 77.3672 6.10691 77.2369 6.1203C76.7253 6.17185 76.2075 6.23546 75.6771 6.32251C75.1318 6.41223 74.6014 6.52002 74.0778 6.63586C73.9687 6.65996 73.8589 6.68407 73.7509 6.70884C73.2462 6.82735 72.7501 6.95658 72.2654 7.0992C72.1797 7.12464 72.0962 7.1521 72.011 7.17821C71.5624 7.31547 71.1217 7.46344 70.6902 7.6228C70.625 7.6469 70.5587 7.669 70.4941 7.6931C70.0317 7.86853 69.5819 8.05868 69.1401 8.25888C69.0435 8.30307 68.9475 8.34726 68.8514 8.39279C68.4256 8.59299 68.0061 8.80123 67.5991 9.02553C67.5883 9.03156 67.578 9.03892 67.5671 9.04495C67.0573 9.3275 66.5629 9.63015 66.0833 9.9502C65.9525 10.0379 65.8301 10.1357 65.7015 10.2254C65.3586 10.4664 65.0185 10.7108 64.6916 10.972C64.651 11.0041 64.6064 11.0322 64.5664 11.0644C64.236 11.3322 63.9143 11.61 63.6005 11.8986C63.2409 12.2281 62.8831 12.5816 62.5259 12.9465C62.4653 13.0088 62.4048 13.069 62.3442 13.132C62.2979 13.1802 62.251 13.225 62.2047 13.2746C61.9098 13.5853 61.616 13.9133 61.3228 14.2488C61.2593 14.3211 61.1965 14.3948 61.1336 14.4677C60.7906 14.8661 60.4483 15.2793 60.1076 15.7111C60.0613 15.77 60.015 15.831 59.9687 15.8906C59.823 16.0774 59.6778 16.2615 59.5326 16.4543C59.3726 16.6666 59.2131 16.8902 59.0537 17.1098C58.9788 17.213 58.9033 17.3134 58.8285 17.4178C58.4872 17.8959 58.1466 18.3907 57.8076 18.9029C57.7322 19.0168 57.6568 19.1359 57.5813 19.2518C57.3024 19.679 57.0246 20.1182 56.7468 20.5688C56.6599 20.7101 56.5725 20.8507 56.485 20.9946C56.4279 21.0891 56.3707 21.1781 56.3136 21.2739C56.1192 21.5986 55.9255 21.9414 55.7317 22.2775C55.6146 22.4811 55.4968 22.6773 55.3802 22.8848C55.0213 23.5216 54.6629 24.1744 54.3057 24.8507L66.4206 32.5707C66.7772 31.8951 67.1356 31.2423 67.4945 30.6056C67.6123 30.396 67.7312 30.1985 67.8495 29.9929C68.0987 29.5604 68.3485 29.1305 68.5988 28.7167C68.6868 28.5714 68.7754 28.4295 68.8634 28.2862C69.1401 27.8369 69.4173 27.399 69.6956 26.9732C69.7717 26.8573 69.8471 26.7382 69.9225 26.6237C70.2621 26.1121 70.6021 25.6173 70.9428 25.1399C71.0182 25.0341 71.0943 24.9337 71.1697 24.8292C71.4738 24.4108 71.7778 24.003 72.0836 23.6113C72.1299 23.5517 72.1762 23.4908 72.2225 23.4319C72.5637 22.9993 72.9061 22.5869 73.2491 22.1878C73.3119 22.1148 73.3748 22.0412 73.4382 21.9695C73.7778 21.5812 74.1178 21.2089 74.4596 20.8534C74.5202 20.7898 74.5814 20.7295 74.6425 20.6666C74.9998 20.3017 75.3576 19.9488 75.7165 19.6194C76.0686 19.296 76.435 18.99 76.8076 18.6927C77.1346 18.4316 77.4741 18.1872 77.817 17.9468C77.9439 17.8577 78.0662 17.76 78.1971 17.6723Z" fill="#B7D1BD"/>
<path d="M92.3847 63.866L83.0584 74.5456L108 70.4391L107.978 84.188L65.5674 91.1702L65.5874 78.5355L84.7274 55.6271C88.4631 51.1048 91.0483 47.5307 92.4744 44.9013C93.9044 42.276 94.6241 39.5154 94.6286 36.6135C94.6332 33.6152 93.9347 31.4157 92.5407 30.0089C91.1426 28.6082 89.2873 28.096 86.9668 28.4776C84.8337 28.8285 82.9081 29.8937 81.1854 31.6788C79.4673 33.4578 77.4834 36.2707 75.2383 40.1119L66.4179 32.5706C69.4403 26.8472 72.5376 22.5319 75.7138 19.62C78.8854 16.7027 82.9104 14.8453 87.7898 14.0418C93.7335 13.0636 98.5033 14.307 102.112 17.7706C105.716 21.2403 107.512 26.3591 107.501 33.1311C107.497 35.7256 107.281 37.9734 106.852 40.0838C106.419 42.195 105.85 44.1347 105.144 45.8976C104.435 47.6666 103.398 49.5816 102.036 51.6405C100.675 53.7001 99.2972 55.6003 97.9111 57.3465C96.5211 59.0947 94.6829 61.2648 92.3847 63.866Z" fill="#B7D1BD"/>
<path d="M92.3847 63.866L83.0584 74.5456L108 70.4391L107.978 84.188L65.5674 91.1702L65.5874 78.5355L84.7274 55.6271C88.4631 51.1048 91.0483 47.5307 92.4744 44.9013C93.9044 42.276 94.6241 39.5154 94.6286 36.6135C94.6332 33.6152 93.9347 31.4156 92.5407 30.0089C91.1426 28.6082 89.2873 28.096 86.9668 28.4776C84.8337 28.8285 82.9081 29.8937 81.1854 31.6788C79.4673 33.4578 77.4834 36.2707 75.2383 40.1119L66.4179 32.5706C69.4403 26.8472 72.5376 22.5319 75.7138 19.62C78.8854 16.7027 82.9104 14.8453 87.7898 14.0418C93.7335 13.0636 98.5033 14.307 102.112 17.7706C105.716 21.2403 107.512 26.3591 107.501 33.1311C107.497 35.7256 107.281 37.9734 106.852 40.0838C106.419 42.1949 105.85 44.1347 105.144 45.8976C104.435 47.6666 103.398 49.5816 102.036 51.6405C100.675 53.7001 99.2972 55.6003 97.9111 57.3465C96.5211 59.0947 94.6829 61.2648 92.3847 63.866Z" fill="url(#paint1_linear_363_17913)"/>
<path d="M75.241 40.1149L63.1261 32.3941L54.3057 24.8535L66.4206 32.5736L75.241 40.1149Z" fill="#B7D1BD"/>
</g>
<defs>
<filter id="filter0_d_363_17913" x="0" y="0" width="118" height="105" filterUnits="userSpaceOnUse" color-interpolation-filters="sRGB">
<feFlood flood-opacity="0" result="BackgroundImageFix"/>
<feColorMatrix in="SourceAlpha" type="matrix" values="0 0 0 0 0 0 0 0 0 0 0 0 0 0 0 0 0 0 127 0" result="hardAlpha"/>
<feMorphology radius="2" operator="dilate" in="SourceAlpha" result="effect1_dropShadow_363_17913"/>
<feOffset dx="2" dy="2"/>
<feGaussianBlur stdDeviation="3"/>
<feComposite in2="hardAlpha" operator="out"/>
<feColorMatrix type="matrix" values="0 0 0 0 0 0 0 0 0 0 0 0 0 0 0 0 0 0 0.08 0"/>
<feBlend mode="normal" in2="BackgroundImageFix" result="effect1_dropShadow_363_17913"/>
<feBlend mode="normal" in="SourceGraphic" in2="effect1_dropShadow_363_17913" result="shape"/>
</filter>
<linearGradient id="paint0_linear_363_17913" x1="33.6481" y1="19.9772" x2="33.6481" y2="87.6465" gradientUnits="userSpaceOnUse">
<stop stop-color="white"/>
<stop offset="0.5232" stop-color="#B7D1BD"/>
<stop offset="1" stop-color="white"/>
</linearGradient>
<linearGradient id="paint1_linear_363_17913" x1="86.7839" y1="11.7228" x2="86.7839" y2="89.9682" gradientUnits="userSpaceOnUse">
<stop stop-color="white"/>
<stop offset="0.5232" stop-color="#B7D1BD"/>
<stop offset="1" stop-color="white"/>
</linearGradient>
</defs>
</svg>
