<svg width="40" height="40" viewBox="0 0 40 40" fill="none" xmlns="http://www.w3.org/2000/svg">
<g clip-path="url(#clip0_827_7914)">
<path d="M40 0H0V40H40V0Z" fill="url(#paint0_linear_827_7914)"/>
<path fill-rule="evenodd" clip-rule="evenodd" d="M18.9018 4.63505C20.9065 4.45445 22.9268 4.69747 24.8314 5.34836C23.611 8.93863 22.5157 12.5762 21.2784 16.1665C17.8639 16.2037 14.4494 16.1496 11.0383 16.1901C10.6597 17.4714 10.1898 18.7256 9.79764 20.0035C13.2222 20.0204 16.6502 20.0035 20.0782 20.0035C19.064 23.0732 18.0329 26.1496 17.0796 29.2395C18.4724 29.2395 19.8686 29.2632 21.2648 29.2395C22.3433 26.1969 23.2594 23.0833 24.3074 20.0238C28.0262 19.9934 31.7618 20.0238 35.494 20.0238C35.4724 23.5482 34.2475 26.9595 32.0221 29.6925C28.0464 34.8277 20.5786 36.7919 14.561 34.395C11.0265 33.0419 8.11279 30.4365 6.37426 27.0748C4.63573 23.7131 4.19372 19.8295 5.13232 16.1631C6.6401 9.89873 12.4616 5.00692 18.9051 4.63505H18.9018ZM28.5062 7.12321C27.492 10.1219 26.4981 13.1374 25.5819 16.1597C28.6989 16.1597 31.8181 16.1597 34.9396 16.1597C34.1114 12.468 31.6469 9.19556 28.5062 7.12321Z" fill="#FEFEFE"/>
</g>
<defs>
<linearGradient id="paint0_linear_827_7914" x1="0" y1="20" x2="40" y2="20" gradientUnits="userSpaceOnUse">
<stop stop-color="#EA5049"/>
<stop offset="0.3" stop-color="#C64492"/>
<stop offset="0.65" stop-color="#6A378D"/>
<stop offset="1" stop-color="#50529F"/>
</linearGradient>
<clipPath id="clip0_827_7914">
<rect width="40" height="40" rx="8" fill="white"/>
</clipPath>
</defs>
</svg>
